<svg id="svg" version="1.1" xmlns="http://www.w3.org/2000/svg" xmlns:xlink="http://www.w3.org/1999/xlink" width="400" height="400" viewBox="0, 0, 400,400"><g id="svgg"><path id="path0" d="M193.755 66.092 C 191.727 66.818,190.570 67.931,189.552 70.137 C 189.062 71.197,189.054 71.357,189.165 77.991 C 189.363 89.870,189.332 90.920,188.751 92.205 L 188.244 93.326 189.042 94.011 C 189.481 94.387,190.241 95.239,190.731 95.903 C 192.412 98.185,194.069 98.993,196.716 98.823 C 199.486 98.645,200.652 97.805,203.011 94.286 L 204.042 92.748 203.368 91.352 C 202.997 90.583,202.469 89.500,202.193 88.944 C 201.547 87.638,200.465 86.907,199.177 86.907 C 198.167 86.907,197.960 87.109,198.505 87.561 C 199.948 88.759,199.201 92.924,197.389 93.784 C 195.073 94.883,193.990 93.547,193.814 89.372 C 193.096 72.333,193.376 70.209,196.272 70.752 C 198.183 71.110,198.486 74.183,196.691 75.001 C 195.514 75.537,196.945 76.401,198.760 76.251 C 203.584 75.851,203.433 68.286,198.560 66.250 C 197.186 65.676,195.108 65.608,193.755 66.092 M175.243 68.143 C 171.651 68.809,171.534 68.859,172.359 69.400 C 173.183 69.940,173.506 70.852,174.140 74.428 C 174.443 76.139,175.514 82.139,176.519 87.761 C 178.454 98.583,178.485 98.956,177.515 100.027 C 176.995 100.602,177.220 100.594,181.163 99.888 C 182.895 99.578,184.357 99.324,184.412 99.324 C 184.468 99.323,184.200 98.993,183.819 98.589 C 182.737 97.447,182.798 97.704,180.259 83.476 C 177.771 69.533,177.669 68.606,178.561 68.055 C 178.819 67.896,178.858 67.482,178.612 67.522 C 178.519 67.537,177.003 67.817,175.243 68.143 M218.211 68.002 C 218.594 69.067,218.196 70.444,213.895 82.957 C 209.285 96.368,209.186 96.603,207.807 97.511 C 206.742 98.212,206.740 98.212,211.147 98.979 C 214.750 99.607,214.996 99.594,214.293 98.814 C 213.460 97.888,213.590 96.208,214.615 94.643 C 215.323 93.563,217.655 92.792,219.289 93.098 L 220.090 93.248 220.090 95.503 C 220.090 98.195,219.749 99.235,218.740 99.616 C 217.718 100.002,217.896 100.158,219.695 100.457 C 220.595 100.607,222.297 100.911,223.476 101.133 C 226.015 101.611,225.933 101.646,225.130 100.430 L 224.492 99.464 224.562 86.018 C 224.636 71.845,224.730 70.241,225.535 69.385 C 226.136 68.744,226.349 68.823,221.981 68.077 C 217.806 67.365,217.983 67.368,218.211 68.002 M161.964 71.021 C 156.865 72.767,155.538 73.363,156.749 73.363 C 157.654 73.363,161.055 80.749,160.643 81.821 C 160.509 82.172,156.393 83.571,156.166 83.344 C 155.237 82.415,153.490 75.352,153.969 74.458 C 154.378 73.693,154.091 73.729,150.861 74.844 C 147.359 76.052,147.103 76.193,147.875 76.491 C 149.096 76.962,149.397 77.672,153.843 90.537 C 158.657 104.464,158.690 104.581,158.151 105.661 C 157.643 106.681,157.587 106.685,161.188 105.459 C 164.024 104.494,165.277 103.837,164.282 103.837 C 163.355 103.837,157.562 89.723,157.562 87.463 C 157.562 87.214,161.981 85.593,162.138 85.784 C 162.186 85.843,163.362 89.193,164.749 93.228 C 167.235 100.459,167.548 101.766,167.025 102.743 C 166.890 102.994,166.836 103.254,166.904 103.322 C 167.007 103.426,170.812 102.205,172.995 101.368 L 173.642 101.120 172.894 100.615 C 171.739 99.837,171.625 99.555,166.935 85.933 C 162.360 72.642,162.325 72.518,162.853 71.505 C 163.259 70.726,163.092 70.634,161.964 71.021 M240.080 72.856 C 240.677 74.213,240.567 74.567,235.558 87.495 C 230.009 101.818,229.917 102.010,228.612 102.027 C 227.629 102.039,228.495 102.498,232.198 103.927 C 238.313 106.287,240.430 106.264,243.230 103.805 C 244.966 102.282,251.719 85.553,251.875 82.393 C 252.087 78.094,250.453 76.334,243.935 73.834 C 239.994 72.323,239.827 72.280,240.080 72.856 M220.652 79.515 C 220.562 81.780,220.463 83.888,220.431 84.199 C 220.399 84.509,220.361 85.743,220.345 86.941 L 220.316 89.118 218.341 89.212 C 217.255 89.263,216.334 89.284,216.296 89.259 C 216.206 89.200,220.626 75.395,220.735 75.395 C 220.780 75.395,220.743 77.249,220.652 79.515 M245.098 79.099 C 248.297 80.731,248.298 80.715,244.262 91.125 C 240.115 101.821,240.165 101.757,236.650 100.871 C 235.191 100.504,235.056 101.039,239.457 89.717 C 241.675 84.012,243.554 79.168,243.634 78.950 C 243.817 78.449,243.826 78.450,245.098 79.099 M262.685 82.311 C 262.624 82.372,262.649 82.694,262.740 83.028 C 263.039 84.123,262.573 85.003,255.508 96.680 C 248.444 108.355,247.880 109.171,246.702 109.407 C 246.343 109.479,246.050 109.601,246.051 109.678 C 246.053 109.833,255.203 115.423,255.622 115.526 C 255.896 115.593,259.368 111.686,259.368 111.310 C 259.368 111.185,259.033 111.144,258.592 111.215 C 257.617 111.373,256.727 111.064,254.792 109.895 L 253.262 108.971 253.775 108.118 C 258.617 100.082,259.302 99.035,260.006 98.600 C 261.569 97.634,263.519 98.191,263.986 99.736 C 264.363 100.985,265.865 100.397,266.492 98.756 C 267.359 96.485,265.822 94.663,263.201 94.852 C 262.289 94.918,261.866 94.871,261.928 94.710 C 261.980 94.578,262.781 93.231,263.707 91.717 L 265.392 88.965 266.803 89.833 C 268.586 90.930,269.494 91.782,269.906 92.744 C 270.084 93.161,270.265 93.466,270.307 93.422 C 270.599 93.118,272.426 88.139,272.291 88.014 C 271.833 87.591,262.780 82.216,262.685 82.311 M133.808 83.269 C 131.226 84.121,125.781 87.413,126.543 87.661 C 127.796 88.068,128.338 88.679,130.008 91.567 C 130.931 93.163,134.027 98.533,136.889 103.499 L 142.093 112.528 142.096 113.939 C 142.098 114.715,142.115 115.350,142.135 115.350 C 142.182 115.350,148.172 111.923,148.269 111.840 C 148.311 111.805,147.899 111.579,147.354 111.338 C 146.212 110.833,146.158 110.754,142.350 104.135 C 139.249 98.745,139.403 99.616,141.301 98.231 C 145.022 95.516,145.764 92.450,143.731 88.190 C 141.640 83.807,137.859 81.932,133.808 83.269 M138.427 88.199 C 140.221 89.917,140.821 92.620,139.682 93.852 C 139.156 94.420,137.477 95.578,137.371 95.445 C 137.176 95.200,133.409 88.502,133.409 88.399 C 133.409 88.184,134.708 87.589,135.602 87.396 C 136.700 87.159,137.612 87.418,138.427 88.199 M280.812 94.844 C 280.811 96.244,280.859 96.182,271.286 106.998 C 261.416 118.150,261.960 117.592,260.611 117.934 L 259.597 118.192 262.248 120.518 C 264.838 122.791,264.900 122.830,264.964 122.201 C 265.097 120.891,265.647 120.127,270.047 115.141 C 275.120 109.393,275.062 109.434,275.041 111.625 C 275.011 114.788,269.658 123.591,267.258 124.425 C 266.985 124.520,267.000 124.618,267.347 125.009 C 267.970 125.711,268.376 127.050,268.389 128.442 C 268.413 131.179,269.366 132.510,271.293 132.501 C 272.334 132.496,272.341 132.490,271.851 132.106 C 270.242 130.841,270.798 129.082,275.094 121.842 C 277.871 117.163,278.799 115.166,278.946 113.561 L 279.060 112.302 281.009 112.302 C 286.685 112.302,290.567 106.432,288.173 101.467 C 287.516 100.104,284.734 97.124,281.992 94.844 L 280.813 93.863 280.812 94.844 M111.608 98.440 C 108.204 101.371,108.364 101.137,109.431 101.629 C 110.383 102.068,110.611 102.394,115.477 110.271 C 117.241 113.126,119.725 117.139,120.998 119.187 C 125.774 126.874,125.394 126.134,125.377 127.714 C 125.369 128.493,125.424 129.103,125.500 129.069 C 125.576 129.035,126.936 127.889,128.522 126.524 L 131.406 124.041 130.389 123.972 C 127.403 123.772,126.417 119.654,128.727 117.030 C 129.835 115.771,129.686 115.746,131.737 117.535 C 133.656 119.208,134.218 120.164,133.852 121.127 C 133.449 122.187,133.767 121.999,136.780 119.391 C 140.136 116.487,140.059 116.598,138.735 116.570 C 137.266 116.539,136.977 116.323,126.118 107.139 C 115.161 97.871,115.207 97.914,114.805 96.743 L 114.524 95.927 111.608 98.440 M283.233 101.862 C 284.980 103.763,285.072 105.204,283.550 106.849 C 282.038 108.483,280.280 108.507,278.273 106.922 C 277.699 106.468,277.684 106.494,280.053 103.814 C 282.390 101.172,282.523 101.090,283.233 101.862 M121.827 108.866 L 126.612 113.125 125.608 114.488 C 125.056 115.238,124.605 115.992,124.605 116.165 C 124.605 116.978,123.735 115.718,116.823 104.897 C 116.159 103.857,116.538 104.157,121.827 108.866 M300.281 113.629 C 299.947 114.876,300.236 114.641,288.036 123.621 C 276.325 132.243,277.135 131.701,275.920 131.724 C 274.609 131.748,274.600 131.721,276.871 134.775 C 278.844 137.428,279.233 137.738,279.233 136.660 C 279.233 136.319,279.563 135.758,280.079 135.225 C 280.911 134.366,291.648 126.307,291.648 126.542 C 291.648 126.632,285.491 134.750,283.911 136.744 C 283.413 137.371,284.127 137.166,290.007 134.991 C 293.365 133.748,296.188 132.731,296.281 132.731 C 296.374 132.731,293.820 134.660,290.606 137.018 C 284.918 141.190,283.592 141.957,282.607 141.644 C 281.853 141.405,282.103 141.896,284.099 144.581 C 286.197 147.402,286.333 147.510,286.534 146.505 C 286.758 145.386,287.736 144.583,298.646 136.551 C 309.334 128.683,310.160 128.142,311.297 128.261 C 312.210 128.358,312.137 128.192,309.976 125.238 C 308.136 122.724,307.675 122.321,307.675 123.229 C 307.675 123.451,307.485 123.804,307.252 124.014 C 306.596 124.609,294.068 129.621,294.408 129.154 C 295.643 127.452,302.837 118.888,303.269 118.605 C 303.610 118.381,304.002 118.306,304.312 118.405 C 305.038 118.635,304.830 118.250,302.608 115.247 C 300.365 112.216,300.613 112.388,300.281 113.629 M95.543 116.694 C 93.723 117.555,92.358 118.851,89.970 121.983 C 87.916 124.676,87.771 124.945,88.493 124.716 C 89.751 124.317,89.494 124.142,103.499 134.971 C 112.317 141.789,112.784 142.201,113.162 143.498 L 113.440 144.450 115.523 141.744 C 117.736 138.871,117.920 138.513,117.075 138.725 C 116.137 138.961,114.997 138.252,109.589 134.068 C 103.972 129.722,103.946 129.695,104.910 129.315 C 107.196 128.411,118.484 133.948,119.231 136.339 C 119.314 136.604,119.487 136.547,120.062 136.063 C 120.849 135.401,121.768 135.100,123.702 134.871 C 126.052 134.593,127.088 133.634,127.088 131.738 C 127.088 130.755,127.071 130.752,126.220 131.603 C 125.010 132.813,123.872 132.490,116.253 128.771 C 110.620 126.021,108.256 125.146,106.975 125.334 L 106.338 125.427 106.339 124.057 C 106.346 118.458,100.394 114.399,95.543 116.694 M194.508 116.524 C 183.812 117.286,174.657 123.401,169.648 133.126 C 168.595 135.171,168.785 135.098,166.923 134.178 C 161.720 131.609,155.630 132.518,151.194 136.526 C 149.865 137.727,150.005 137.843,152.765 137.826 C 161.832 137.768,164.303 145.087,164.330 172.080 L 164.342 183.574 163.153 183.428 C 159.599 182.990,155.875 185.124,153.982 188.684 C 153.330 189.912,153.288 190.075,153.685 189.863 C 154.507 189.423,156.666 189.571,157.915 190.153 C 160.828 191.509,162.575 194.219,163.817 199.304 C 164.255 201.099,164.474 231.049,164.084 235.779 C 163.213 246.338,160.294 250.254,153.330 250.207 C 150.105 250.185,150.185 250.085,151.924 251.982 C 154.235 254.505,156.772 256.045,162.238 258.242 C 167.234 260.251,168.181 260.899,172.460 265.237 C 174.746 267.554,177.013 269.610,178.327 270.557 C 193.031 281.152,210.066 276.115,218.653 258.634 C 219.943 256.008,220.079 256.127,220.533 260.271 C 220.676 261.574,221.052 263.809,221.369 265.237 C 221.686 266.665,221.990 268.077,222.044 268.376 C 222.537 271.076,227.021 278.698,227.711 278.008 C 227.775 277.943,228.112 278.129,228.458 278.421 C 232.388 281.727,239.964 281.135,243.789 277.221 C 246.579 274.366,248.122 269.073,247.166 265.632 C 246.877 264.588,246.667 264.583,245.018 265.575 C 235.118 271.537,228.809 261.150,226.853 235.666 C 225.705 220.717,227.525 211.480,233.491 201.975 C 235.191 199.268,235.219 199.192,234.368 199.632 C 226.573 203.654,222.297 204.123,213.530 201.915 C 203.651 199.427,197.264 202.104,196.427 209.082 C 196.182 211.120,196.307 211.237,197.722 210.285 C 202.755 206.898,208.852 210.906,211.096 219.074 C 211.722 221.355,211.889 231.093,211.388 236.113 C 210.121 248.796,205.831 255.916,198.533 257.448 C 190.527 259.129,184.631 253.895,183.529 244.131 C 183.205 241.259,183.214 152.247,183.538 148.780 C 184.503 138.484,189.873 133.077,197.963 134.256 C 204.932 135.272,209.046 143.275,205.957 149.807 C 204.247 153.421,198.792 154.656,197.669 151.682 C 197.336 150.800,197.185 150.840,196.750 151.926 C 194.895 156.563,199.247 161.525,204.452 160.709 C 205.778 160.501,206.013 160.692,205.544 161.599 C 198.795 174.651,206.594 188.879,217.911 184.159 C 219.533 183.482,219.548 183.449,218.683 182.473 C 211.494 174.374,212.442 161.995,221.147 150.298 C 224.364 145.975,228.371 142.412,232.167 140.498 C 234.951 139.095,234.923 139.173,233.337 137.193 C 231.566 134.983,226.191 134.951,224.375 137.139 C 223.743 137.900,223.360 137.522,222.707 135.497 C 218.510 122.466,208.225 115.546,194.508 116.524 M99.729 120.635 C 101.942 121.795,102.569 123.836,101.352 125.919 C 100.864 126.754,100.568 127.059,100.381 126.918 C 100.234 126.807,98.971 125.829,97.576 124.745 L 95.040 122.774 95.423 122.189 C 96.453 120.617,98.373 119.925,99.729 120.635 M82.054 136.656 C 77.778 138.681,76.844 144.529,80.253 147.937 C 81.010 148.694,82.904 149.738,89.307 152.925 C 96.758 156.633,97.505 157.058,98.666 158.243 C 99.909 159.512,99.937 159.526,100.560 159.200 C 100.908 159.018,102.002 158.728,102.991 158.555 C 108.639 157.569,110.801 152.859,107.907 147.845 C 107.283 146.763,106.772 145.705,106.772 145.493 C 106.772 145.173,106.628 145.131,105.926 145.246 C 104.606 145.463,102.819 144.866,98.880 142.894 C 94.498 140.700,95.013 140.683,93.824 143.059 C 92.297 146.111,92.299 146.021,93.775 145.986 C 94.914 145.960,95.367 146.130,99.202 148.029 C 104.401 150.604,105.174 151.509,103.684 153.281 C 102.651 154.508,102.111 154.328,92.551 149.580 C 83.529 145.100,83.070 144.796,83.070 143.311 C 83.070 140.678,86.554 140.439,87.042 143.038 C 87.214 143.955,87.539 143.989,88.318 143.172 C 91.654 139.674,86.657 134.477,82.054 136.656 M316.588 137.280 C 316.283 138.289,315.227 139.109,312.641 140.346 C 310.345 141.444,305.754 143.622,299.436 146.613 C 298.318 147.142,295.995 148.247,294.272 149.069 C 290.343 150.943,289.666 151.156,288.698 150.818 C 288.294 150.678,287.926 150.599,287.882 150.643 C 287.810 150.715,292.460 160.706,292.658 160.904 C 292.779 161.026,297.824 159.578,298.062 159.354 C 298.182 159.240,298.041 159.071,297.723 158.948 C 296.600 158.512,293.980 154.436,294.509 153.948 C 295.065 153.435,304.537 149.145,305.305 149.059 C 307.136 148.852,308.876 150.518,308.411 152.032 C 308.125 152.965,308.378 153.273,309.435 153.273 C 312.984 153.273,313.125 148.396,309.608 147.253 C 308.972 147.046,313.647 144.432,315.079 144.195 C 315.790 144.077,317.028 147.001,317.036 148.817 C 317.044 150.605,316.866 150.616,319.675 148.647 L 321.839 147.130 319.465 142.132 C 316.809 136.539,316.811 136.543,316.588 137.280 M299.321 188.460 C 296.538 189.368,295.057 192.364,295.306 196.580 C 295.557 200.806,298.714 203.789,301.435 202.370 C 302.256 201.942,302.172 202.457,301.033 204.853 C 299.633 207.799,298.044 209.401,296.379 209.547 C 295.108 209.658,295.687 211.089,297.160 211.476 C 303.884 213.245,309.303 193.085,303.189 189.045 C 302.294 188.454,300.277 188.149,299.321 188.460 M326.185 188.732 C 319.478 191.769,317.378 210.249,323.606 211.418 C 325.163 211.710,326.799 211.417,327.711 210.682 C 330.673 208.295,330.765 201.622,327.867 199.412 C 326.776 198.580,324.312 198.454,323.500 199.188 C 322.916 199.717,322.916 199.722,323.502 197.826 C 324.883 193.353,327.332 190.293,329.530 190.293 C 330.223 190.293,330.153 189.711,329.363 188.922 C 328.563 188.122,327.652 188.067,326.185 188.732 M83.349 189.283 C 79.880 191.043,80.044 195.076,83.754 199.249 C 87.243 203.171,87.962 205.308,86.357 206.983 C 84.382 209.044,81.812 205.937,83.530 203.564 C 84.100 202.778,84.089 202.709,83.397 202.709 C 82.295 202.709,81.613 203.297,80.639 205.091 L 79.692 206.833 81.095 208.416 C 86.375 214.372,93.156 207.106,88.549 200.430 C 88.171 199.883,87.143 198.632,86.264 197.649 C 83.829 194.926,83.200 193.046,84.398 192.075 C 86.037 190.748,87.442 192.940,85.962 194.515 L 85.474 195.034 86.541 195.034 C 89.032 195.034,90.084 193.211,88.942 190.873 C 87.970 188.882,85.514 188.184,83.349 189.283 M69.977 189.091 C 69.977 189.174,70.155 189.439,70.372 189.679 C 71.013 190.386,70.975 208.978,70.332 209.689 L 69.897 210.169 73.712 210.107 L 77.526 210.045 77.807 208.363 C 78.132 206.427,78.116 206.380,77.333 206.893 C 77.010 207.105,76.095 207.328,75.282 207.393 L 73.815 207.511 73.815 203.447 C 73.815 198.407,74.489 197.141,76.532 198.348 C 77.362 198.838,77.743 198.543,77.743 197.410 C 77.743 195.732,75.920 194.920,74.471 195.952 L 73.815 196.419 73.815 194.121 L 73.815 191.823 75.378 191.911 C 76.501 191.974,77.074 192.119,77.411 192.424 C 78.152 193.094,78.179 192.415,77.529 189.447 C 77.420 188.946,69.977 188.595,69.977 189.091 M91.636 188.995 C 91.428 189.978,91.048 192.689,91.109 192.756 C 91.156 192.807,91.404 192.659,91.660 192.427 C 91.986 192.132,92.480 192.002,93.298 191.995 L 94.470 191.986 94.529 200.211 C 94.584 207.886,94.560 208.493,94.162 209.297 L 93.736 210.158 94.272 210.186 C 94.567 210.202,94.960 210.214,95.147 210.214 C 95.333 210.214,96.097 210.202,96.845 210.186 L 98.205 210.158 97.804 209.547 C 97.439 208.990,97.404 208.195,97.404 200.462 L 97.404 191.986 98.575 191.995 C 99.393 192.002,99.887 192.132,100.213 192.427 C 100.882 193.032,100.920 192.860,100.562 190.849 C 100.386 189.861,100.238 189.027,100.234 188.995 C 100.229 188.964,98.296 188.939,95.937 188.939 C 93.578 188.939,91.642 188.964,91.636 188.995 M289.665 189.646 C 289.613 191.485,287.517 193.412,286.685 192.386 C 286.147 191.721,285.553 192.314,285.553 193.515 C 285.553 195.743,288.323 195.580,289.483 193.284 C 289.687 192.881,289.905 192.551,289.968 192.551 C 290.336 192.551,289.941 209.861,289.560 210.443 C 289.343 210.774,289.165 211.099,289.165 211.166 C 289.165 211.232,290.192 211.287,291.448 211.287 L 293.731 211.287 293.310 210.666 C 292.677 209.732,292.658 190.513,293.290 189.550 L 293.690 188.939 291.687 188.939 L 289.685 188.939 289.665 189.646 M311.187 189.263 C 307.236 190.727,306.570 195.958,309.996 198.619 L 311.333 199.657 310.638 199.799 C 305.668 200.815,306.264 210.221,311.366 211.280 C 317.699 212.595,321.012 204.120,315.998 199.430 C 314.769 198.281,314.722 198.194,315.319 198.194 C 316.630 198.194,317.694 196.423,317.694 194.244 C 317.694 190.519,314.466 188.048,311.187 189.263 M301.666 191.704 C 302.514 192.471,302.935 194.062,302.935 196.509 C 302.935 198.621,302.805 198.966,302.257 198.307 C 301.828 197.790,301.277 197.875,301.424 198.437 C 301.726 199.592,300.110 200.159,299.228 199.208 C 296.726 196.508,299.053 189.344,301.666 191.704 M314.131 192.641 C 315.473 193.983,314.853 196.988,313.333 196.506 C 313.048 196.415,312.878 196.489,312.829 196.724 C 312.712 197.276,311.149 195.871,310.841 194.938 C 310.102 192.700,312.510 191.020,314.131 192.641 M315.306 203.957 C 315.980 207.117,313.300 209.816,311.279 208.014 C 309.107 206.076,310.250 201.060,312.657 201.969 C 313.284 202.205,313.319 202.187,313.328 201.617 C 313.342 200.646,315.024 202.635,315.306 203.957 M326.463 202.279 C 327.424 203.573,327.182 207.083,326.059 208.139 C 324.436 209.663,322.902 207.866,322.638 204.130 L 322.500 202.167 323.131 202.664 C 323.995 203.343,324.379 203.299,324.379 202.521 C 324.379 201.364,325.672 201.215,326.463 202.279 M102.308 208.478 C 101.320 209.170,101.816 211.023,103.007 211.088 C 104.262 211.156,104.740 210.742,104.740 209.586 C 104.740 208.303,103.417 207.701,102.308 208.478 M104.910 258.962 C 102.938 259.882,102.497 260.271,103.428 260.271 C 103.982 260.271,106.175 262.402,106.039 262.808 C 105.923 263.155,89.914 274.468,88.963 274.875 C 88.542 275.055,87.958 275.142,87.665 275.069 C 86.938 274.886,86.928 274.862,88.745 277.441 L 90.357 279.727 90.833 278.795 C 91.242 277.994,92.496 277.024,99.774 271.878 L 108.239 265.893 108.866 266.636 C 109.528 267.420,110.045 268.906,109.842 269.437 C 109.605 270.052,110.055 269.731,111.651 268.146 L 113.268 266.540 110.302 262.288 C 108.671 259.949,107.235 258.037,107.111 258.039 C 106.986 258.040,105.996 258.456,104.910 258.962 M288.157 261.850 C 284.548 263.707,283.744 268.402,286.560 271.187 C 286.954 271.577,289.555 273.571,292.340 275.619 C 297.973 279.759,299.149 280.752,299.539 281.692 L 299.805 282.334 301.878 282.239 C 306.452 282.030,308.665 280.231,308.633 276.749 C 308.622 275.586,307.440 271.642,307.180 271.902 C 306.785 272.297,304.488 271.110,301.726 269.082 L 298.667 266.837 297.516 268.421 C 296.077 270.399,295.972 270.655,296.597 270.655 C 297.637 270.655,302.716 273.970,304.154 275.588 C 305.665 277.288,303.444 279.194,301.523 277.845 C 289.939 269.707,287.903 267.784,289.234 266.237 C 290.278 265.023,292.324 265.976,292.013 267.531 C 291.778 268.708,293.312 267.956,294.048 266.534 C 295.555 263.619,291.298 260.234,288.157 261.850 M116.743 271.585 C 116.160 273.077,97.575 285.438,95.912 285.439 C 94.508 285.440,94.468 285.328,96.770 287.826 C 99.099 290.353,99.049 290.323,99.139 289.245 C 99.343 286.791,102.837 286.173,105.011 288.206 L 105.619 288.775 104.366 290.299 C 103.006 291.952,102.310 292.404,101.454 292.189 C 100.628 291.981,100.729 292.140,102.950 294.527 C 105.361 297.117,105.323 297.094,105.348 295.975 C 105.376 294.702,105.371 294.709,112.857 285.196 C 118.401 278.151,119.896 276.386,120.582 276.079 L 121.432 275.699 119.203 273.346 C 116.991 271.011,116.973 270.998,116.743 271.585 M278.832 272.973 C 276.846 274.970,276.719 275.169,277.438 275.169 C 278.279 275.169,279.093 275.788,281.603 278.336 L 284.086 280.857 282.167 280.755 C 279.101 280.593,276.191 279.304,275.399 277.758 C 275.211 277.389,275.028 277.043,274.993 276.987 C 274.908 276.851,270.880 280.869,270.880 281.090 C 270.880 281.186,271.252 281.264,271.706 281.264 C 272.630 281.264,272.639 281.272,283.367 291.868 C 288.853 297.286,289.391 297.925,289.391 299.025 C 289.391 299.607,289.535 299.508,291.422 297.630 C 293.685 295.377,293.751 295.260,292.746 295.260 C 292.128 295.260,291.415 294.650,287.159 290.479 C 284.475 287.850,281.947 285.382,281.539 284.994 L 280.798 284.290 283.006 284.284 C 284.221 284.280,285.662 284.150,286.209 283.994 L 287.205 283.711 291.006 287.507 C 294.665 291.161,295.663 292.439,295.398 293.131 C 295.142 293.796,295.664 293.397,297.630 291.422 C 299.402 289.642,299.583 289.390,299.092 289.383 C 298.134 289.369,297.730 289.015,289.698 281.148 C 281.876 273.488,281.041 272.568,281.039 271.614 C 281.038 270.836,280.832 270.963,278.832 272.973 M112.810 279.966 C 111.649 281.363,110.055 283.293,109.268 284.255 C 107.828 286.015,107.595 286.198,107.333 285.774 C 107.255 285.647,106.693 285.259,106.084 284.912 L 104.978 284.280 109.882 280.857 C 112.579 278.974,114.816 277.432,114.853 277.430 C 114.890 277.428,113.970 278.569,112.810 279.966 M123.746 281.304 C 121.976 282.824,121.829 283.070,122.695 283.070 C 124.104 283.070,126.021 284.580,125.484 285.267 C 122.076 289.634,112.456 300.919,111.997 301.090 C 111.668 301.212,111.214 301.372,110.988 301.445 C 110.661 301.551,111.016 301.947,112.726 303.385 C 115.157 305.430,115.124 305.413,115.126 304.571 C 115.128 303.560,115.453 303.120,122.243 294.944 L 128.745 287.115 129.720 288.071 C 130.255 288.597,130.805 289.364,130.941 289.775 C 131.255 290.728,131.317 290.680,132.603 288.467 C 133.491 286.938,133.622 286.575,133.372 286.334 C 132.565 285.558,125.671 279.910,125.531 279.910 C 125.442 279.910,124.639 280.537,123.746 281.304 M267.156 283.872 C 264.962 285.690,264.711 286.005,265.459 286.005 C 266.368 286.005,266.786 286.458,273.525 294.750 C 281.714 304.827,281.302 304.271,281.330 305.276 C 281.360 306.336,281.263 306.374,283.727 304.358 L 285.850 302.621 284.968 302.240 C 283.854 301.759,284.112 302.051,276.507 292.664 C 269.874 284.476,269.200 283.528,269.410 282.675 C 269.596 281.917,269.373 282.035,267.156 283.872 M133.763 289.597 L 132.199 291.309 133.325 291.449 C 134.820 291.634,136.441 292.631,136.134 293.177 C 136.013 293.391,134.850 295.192,133.550 297.178 C 132.249 299.165,129.944 302.720,128.428 305.079 C 125.420 309.758,124.822 310.522,123.837 310.947 L 123.183 311.229 125.253 312.621 C 127.982 314.457,127.991 314.459,127.991 313.440 C 127.991 312.984,128.108 312.390,128.250 312.118 C 128.462 311.716,139.190 295.104,139.407 294.843 C 139.631 294.572,141.559 296.290,141.901 297.066 C 142.121 297.564,142.371 297.894,142.458 297.800 C 142.703 297.535,144.315 293.674,144.217 293.584 C 144.011 293.393,136.141 288.292,135.755 288.099 C 135.396 287.920,135.078 288.159,133.763 289.597 M258.438 290.021 C 256.123 291.231,254.983 293.639,255.515 296.200 C 255.728 297.229,256.455 298.498,259.519 303.187 C 263.419 309.156,264.351 310.834,264.383 311.937 C 264.399 312.518,264.500 312.610,265.251 312.730 C 265.718 312.805,266.567 313.066,267.137 313.310 C 271.397 315.136,274.760 312.709,275.138 307.536 L 275.291 305.451 274.609 305.097 C 274.234 304.902,273.434 304.387,272.831 303.952 C 271.594 303.060,270.431 302.914,269.282 303.508 C 268.637 303.842,268.565 304.289,269.156 304.289 C 270.755 304.289,271.954 308.120,270.737 309.337 C 269.105 310.969,268.542 310.456,263.583 302.822 C 258.701 295.304,258.719 295.345,259.727 294.148 C 261.050 292.576,263.417 294.189,262.557 296.077 C 262.207 296.844,262.204 296.840,263.096 296.840 C 264.775 296.840,266.085 294.825,265.621 292.958 C 264.898 290.045,261.248 288.553,258.438 290.021 M147.699 297.171 C 145.805 297.995,145.180 298.930,141.857 305.915 C 139.238 311.419,138.540 312.699,137.673 313.577 L 136.633 314.630 137.040 315.949 C 137.264 316.675,137.505 317.632,137.575 318.075 C 138.112 321.466,142.307 323.238,145.531 321.436 C 146.251 321.033,147.148 320.555,147.525 320.372 C 148.158 320.065,148.210 319.950,148.210 318.865 C 148.210 317.389,152.434 308.267,153.554 307.325 L 154.206 306.776 153.629 306.513 L 153.051 306.250 153.813 305.510 C 157.786 301.651,152.857 294.928,147.699 297.171 M244.582 298.274 C 243.962 298.435,242.641 298.951,241.648 299.420 C 240.655 299.889,239.497 300.422,239.076 300.604 L 238.310 300.936 238.993 301.352 C 240.003 301.966,239.987 301.935,245.041 312.806 C 249.414 322.209,249.706 322.919,249.581 323.830 L 249.448 324.803 251.869 323.674 C 254.353 322.516,254.989 322.122,254.376 322.122 C 253.561 322.122,248.307 312.438,248.307 310.935 C 248.307 308.322,255.515 316.686,256.444 320.376 L 256.684 321.332 257.744 321.262 C 258.396 321.220,259.316 321.372,260.137 321.658 C 261.977 322.298,262.652 322.258,263.449 321.462 C 264.308 320.603,264.348 320.010,263.525 320.323 C 262.186 320.832,260.901 319.606,256.858 313.958 C 254.796 311.079,252.442 308.578,251.793 308.578 C 251.366 308.578,251.377 308.504,251.971 307.384 C 254.498 302.619,249.862 296.902,244.582 298.274 M150.199 300.893 C 151.791 301.498,151.649 303.454,149.956 304.224 C 149.484 304.438,149.063 304.634,149.022 304.658 C 148.816 304.779,149.520 305.673,150.034 305.942 L 150.621 306.250 149.908 306.757 C 149.358 307.149,148.640 308.403,146.754 312.266 C 143.878 318.156,143.457 318.649,141.940 317.905 C 140.749 317.321,140.850 316.433,142.506 312.929 C 148.394 300.477,148.533 300.259,150.199 300.893 M248.077 302.219 C 249.635 303.776,249.351 305.876,247.438 306.952 L 246.564 307.443 245.404 304.969 C 244.032 302.045,244.048 302.160,244.977 301.862 C 246.389 301.409,247.382 301.523,248.077 302.219 M231.208 303.196 C 227.192 304.505,226.632 304.791,227.519 305.073 C 228.282 305.315,228.560 306.048,232.058 317.024 C 235.239 327.008,235.480 327.883,235.251 328.629 C 235.115 329.072,235.041 329.472,235.086 329.518 C 235.282 329.714,243.792 326.815,243.792 326.552 C 243.792 326.396,243.689 325.665,243.563 324.929 C 243.437 324.192,243.280 323.263,243.216 322.864 L 243.098 322.139 242.259 322.977 C 241.491 323.743,239.526 324.611,238.581 324.602 C 237.920 324.595,235.331 315.595,235.723 314.669 C 236.297 313.311,237.644 312.614,238.578 313.191 C 239.364 313.678,239.764 312.219,239.162 311.056 C 238.276 309.341,235.235 309.670,234.640 311.545 C 234.415 312.254,234.195 311.842,233.348 309.120 L 232.569 306.615 234.077 306.129 C 235.756 305.588,236.602 305.524,237.280 305.887 C 237.531 306.022,237.785 306.083,237.844 306.024 C 238.039 305.829,235.893 301.805,235.607 301.829 C 235.453 301.842,233.473 302.457,231.208 303.196 M162.939 302.798 C 160.257 303.520,159.669 304.526,156.950 313.041 C 154.667 320.192,154.437 320.773,153.583 321.564 L 153.034 322.073 153.467 322.831 C 153.705 323.248,154.069 324.115,154.276 324.758 C 155.639 328.987,160.160 330.183,163.473 327.190 C 163.960 326.750,164.611 326.275,164.919 326.135 C 165.321 325.951,165.431 325.778,165.306 325.524 C 164.712 324.311,167.616 313.644,168.842 312.534 C 169.418 312.013,169.425 311.738,168.862 311.738 C 168.207 311.738,168.123 311.400,168.660 310.922 C 169.380 310.280,169.752 309.189,169.747 307.739 C 169.733 304.143,166.543 301.828,162.939 302.798 M222.235 305.585 C 219.319 306.251,219.353 306.231,220.132 306.798 C 220.929 307.379,220.857 307.119,223.482 318.962 C 225.700 328.966,225.905 330.309,225.396 331.467 C 225.234 331.836,225.284 331.879,225.753 331.773 C 226.053 331.705,227.345 331.419,228.624 331.137 L 230.949 330.623 230.394 330.153 C 229.516 329.410,229.477 329.273,226.979 318.000 C 224.456 306.617,224.424 306.421,224.936 305.743 C 225.640 304.813,225.618 304.812,222.235 305.585 M165.083 306.806 C 166.433 307.517,166.098 309.588,164.545 310.129 C 163.608 310.456,164.274 311.738,165.380 311.738 C 165.550 311.738,165.688 311.840,165.688 311.964 C 165.688 312.088,165.591 312.190,165.472 312.190 C 164.993 312.190,164.080 314.346,162.652 318.849 C 160.788 324.730,159.906 325.840,158.342 324.277 C 157.515 323.450,157.583 323.099,160.151 315.009 C 162.880 306.408,163.228 305.829,165.083 306.806 M208.352 307.787 C 207.173 307.952,206.173 308.096,206.131 308.107 C 206.089 308.118,206.309 308.429,206.620 308.798 C 207.311 309.620,207.408 310.085,208.007 315.463 C 208.076 316.084,208.428 318.979,208.789 321.896 C 210.060 332.173,210.089 332.634,209.515 333.411 L 209.016 334.086 209.628 334.086 C 210.406 334.086,214.224 333.633,214.673 333.488 C 214.952 333.397,214.939 333.337,214.595 333.145 C 213.836 332.718,211.912 322.099,212.489 321.521 C 212.551 321.459,213.272 321.256,214.092 321.069 C 217.381 320.319,219.025 318.267,219.015 314.924 C 218.998 308.865,215.820 306.738,208.352 307.787 M213.976 311.390 C 215.251 312.049,215.901 315.266,215.028 316.597 C 214.682 317.126,212.318 318.036,212.032 317.751 C 211.863 317.582,211.121 311.302,211.255 311.168 C 211.494 310.929,213.383 311.083,213.976 311.390 M180.255 320.573 C 179.954 321.410,179.238 323.842,179.235 324.041 C 179.234 324.183,180.874 324.270,183.691 324.277 C 188.284 324.288,190.718 324.577,194.089 325.512 C 194.916 325.741,195.621 325.899,195.657 325.863 C 195.739 325.781,195.301 321.862,195.198 321.759 C 195.157 321.718,192.233 321.426,188.701 321.110 C 185.170 320.794,181.849 320.474,181.323 320.400 C 180.625 320.302,180.336 320.349,180.255 320.573 " stroke="none" fill="#d4bb6c" fill-rule="evenodd"></path><path id="path1" d="M216.247 124.046 C 216.430 124.291,216.920 124.882,217.337 125.359 C 219.311 127.618,221.460 131.546,222.786 135.319 C 223.178 136.432,223.535 137.380,223.581 137.426 C 223.627 137.472,224.205 137.145,224.865 136.700 C 225.526 136.256,226.195 135.892,226.351 135.892 C 227.450 135.892,224.181 130.952,221.232 128.157 C 219.211 126.242,215.765 123.400,216.247 124.046 M194.244 134.326 C 188.543 135.175,185.045 139.312,183.855 146.614 C 183.440 149.156,183.351 243.044,183.760 245.598 C 184.607 250.878,187.483 255.199,191.231 256.822 L 191.831 257.081 191.082 255.459 C 189.059 251.075,189.131 253.264,189.225 199.661 C 189.299 156.871,189.340 152.546,189.684 150.869 C 191.372 142.637,195.575 138.843,202.734 139.088 C 205.521 139.183,205.452 139.232,204.424 137.886 C 202.335 135.149,198.266 133.726,194.244 134.326 M234.275 138.247 C 234.866 139.351,234.977 139.223,232.231 140.600 C 225.809 143.819,219.179 151.561,216.062 159.481 C 212.735 167.938,213.550 176.219,218.264 181.828 C 219.678 183.511,219.677 183.557,218.228 184.147 C 215.296 185.342,211.860 185.441,209.739 184.391 C 209.100 184.075,208.578 183.837,208.578 183.863 C 208.578 184.101,214.296 188.520,215.220 188.996 C 218.000 190.429,220.949 190.369,224.362 188.810 L 225.586 188.251 224.909 187.523 C 218.843 180.997,218.209 171.466,223.178 161.526 C 226.691 154.500,232.784 147.980,238.340 145.301 C 241.067 143.986,241.008 143.319,237.947 140.823 C 237.003 140.053,235.684 138.961,235.017 138.396 L 233.804 137.369 234.275 138.247 M150.838 138.103 C 150.631 138.243,151.332 138.940,153.285 140.538 L 156.022 142.777 158.463 142.777 L 160.905 142.777 160.532 142.123 C 159.835 140.905,158.032 139.261,156.720 138.648 C 155.356 138.010,151.506 137.654,150.838 138.103 M197.785 151.718 C 197.957 152.212,198.305 152.545,198.958 152.842 C 200.499 153.541,200.547 153.333,199.119 152.144 C 197.524 150.818,197.465 150.799,197.785 151.718 M200.226 160.335 C 200.226 160.501,204.141 163.636,204.383 163.664 C 204.574 163.686,205.643 161.343,205.643 160.903 C 205.643 160.797,205.008 160.774,204.233 160.854 C 202.984 160.981,201.765 160.813,200.550 160.347 C 200.372 160.279,200.226 160.273,200.226 160.335 M154.120 189.759 C 153.457 189.954,153.629 190.153,156.455 192.463 L 159.186 194.695 160.575 194.615 C 162.272 194.516,162.234 194.552,161.653 193.611 C 160.049 191.016,156.324 189.111,154.120 189.759 M233.597 201.975 C 227.790 211.375,226.003 219.719,226.838 233.521 C 227.944 251.803,231.643 263.754,237.041 266.489 C 238.775 267.367,238.889 267.256,238.036 265.519 C 235.266 259.878,233.473 250.822,232.729 238.713 C 231.842 224.270,233.672 215.771,239.647 206.587 C 240.319 205.554,240.891 204.627,240.920 204.527 C 240.958 204.391,235.328 199.549,235.132 199.549 C 235.112 199.549,234.421 200.641,233.597 201.975 M198.758 209.774 C 198.138 210.070,197.490 210.480,197.320 210.686 C 197.150 210.892,196.859 211.061,196.675 211.061 C 196.491 211.061,197.692 212.175,199.345 213.537 L 202.350 216.013 203.037 215.552 C 204.802 214.369,206.079 213.942,207.564 214.036 C 209.297 214.147,209.267 213.971,207.196 211.900 C 204.729 209.434,201.291 208.567,198.758 209.774 M155.982 255.610 C 158.780 258.455,163.057 261.169,167.587 262.974 C 169.190 263.612,170.816 264.286,171.199 264.471 C 172.320 265.011,168.450 261.411,166.945 260.514 C 166.233 260.089,164.062 259.096,162.122 258.307 C 160.182 257.518,157.930 256.512,157.119 256.070 C 156.307 255.628,155.796 255.421,155.982 255.610 M218.826 258.510 C 215.090 265.929,209.272 271.919,203.413 274.377 C 196.324 277.353,186.866 276.389,180.206 272.014 C 178.935 271.178,179.401 271.611,182.422 274.067 C 195.531 284.726,210.865 283.065,220.643 269.928 L 221.940 268.185 221.354 265.752 C 221.032 264.413,220.594 261.871,220.382 260.102 C 219.935 256.380,219.911 256.356,218.826 258.510 M247.452 266.536 C 248.213 271.360,245.372 277.095,241.131 279.295 C 237.700 281.074,232.778 281.130,229.797 279.422 C 228.775 278.837,229.156 279.203,232.054 281.596 C 241.523 289.411,253.193 284.715,253.349 273.025 C 253.387 270.161,253.171 269.880,247.606 265.520 C 247.282 265.266,247.267 265.366,247.452 266.536 " stroke="none" fill="#063d55" fill-rule="evenodd"></path><path id="path2" d="M0.000 200.000 L 0.000 400.000 200.000 400.000 L 400.000 400.000 400.000 200.000 L 400.000 0.000 200.000 0.000 L 0.000 0.000 0.000 200.000 M198.560 66.250 C 203.433 68.286,203.584 75.851,198.760 76.251 C 196.945 76.401,195.514 75.537,196.691 75.001 C 198.486 74.183,198.183 71.110,196.272 70.752 C 193.376 70.209,193.096 72.333,193.814 89.372 C 193.990 93.547,195.073 94.883,197.389 93.784 C 199.201 92.924,199.948 88.759,198.505 87.561 C 197.960 87.109,198.167 86.907,199.177 86.907 C 200.465 86.907,201.547 87.638,202.193 88.944 C 202.469 89.500,202.997 90.583,203.368 91.352 L 204.042 92.748 203.011 94.286 C 200.652 97.805,199.486 98.645,196.716 98.823 C 194.069 98.993,192.412 98.185,190.731 95.903 C 190.241 95.239,189.481 94.387,189.042 94.011 L 188.244 93.326 188.751 92.205 C 189.332 90.920,189.363 89.870,189.165 77.991 C 189.041 70.582,189.061 70.446,190.527 68.387 C 192.186 66.057,195.798 65.096,198.560 66.250 M178.781 67.707 C 178.781 67.824,178.682 67.980,178.561 68.055 C 177.669 68.606,177.771 69.533,180.259 83.476 C 182.798 97.704,182.737 97.447,183.819 98.589 C 184.200 98.993,184.468 99.323,184.412 99.324 C 184.357 99.324,182.895 99.578,181.163 99.888 C 177.220 100.594,176.995 100.602,177.515 100.027 C 178.485 98.956,178.454 98.583,176.519 87.761 C 175.514 82.139,174.443 76.139,174.140 74.428 C 173.506 70.852,173.183 69.940,172.359 69.400 C 172.035 69.187,171.831 68.951,171.906 68.875 C 172.008 68.772,176.424 67.881,178.612 67.522 C 178.705 67.507,178.781 67.590,178.781 67.707 M221.981 68.077 C 226.349 68.823,226.136 68.744,225.535 69.385 C 224.730 70.241,224.636 71.845,224.562 86.018 L 224.492 99.464 225.130 100.430 C 225.933 101.646,226.015 101.611,223.476 101.133 C 222.297 100.911,220.595 100.607,219.695 100.457 C 217.896 100.158,217.718 100.002,218.740 99.616 C 219.749 99.235,220.090 98.195,220.090 95.503 L 220.090 93.248 219.289 93.098 C 217.655 92.792,215.323 93.563,214.615 94.643 C 213.590 96.208,213.460 97.888,214.293 98.814 C 214.996 99.594,214.750 99.607,211.147 98.979 C 206.740 98.212,206.742 98.212,207.807 97.511 C 209.186 96.603,209.285 96.368,213.895 82.957 C 218.196 70.444,218.594 69.067,218.211 68.002 C 217.983 67.368,217.806 67.365,221.981 68.077 M162.853 71.505 C 162.325 72.518,162.360 72.642,166.935 85.933 C 171.625 99.555,171.739 99.837,172.894 100.615 L 173.642 101.120 172.995 101.368 C 170.812 102.205,167.007 103.426,166.904 103.322 C 166.836 103.254,166.890 102.994,167.025 102.743 C 167.548 101.766,167.235 100.459,164.749 93.228 C 163.362 89.193,162.186 85.843,162.138 85.784 C 161.981 85.593,157.562 87.214,157.562 87.463 C 157.562 89.723,163.355 103.837,164.282 103.837 C 165.277 103.837,164.024 104.494,161.188 105.459 C 157.587 106.685,157.643 106.681,158.151 105.661 C 158.690 104.581,158.657 104.464,153.843 90.537 C 149.397 77.672,149.096 76.962,147.875 76.491 C 147.103 76.193,147.359 76.052,150.861 74.844 C 154.091 73.729,154.378 73.693,153.969 74.458 C 153.490 75.352,155.237 82.415,156.166 83.344 C 156.393 83.571,160.509 82.172,160.643 81.821 C 161.055 80.749,157.654 73.363,156.749 73.363 C 155.873 73.363,156.671 72.877,158.747 72.145 C 163.507 70.468,163.384 70.487,162.853 71.505 M243.935 73.834 C 250.453 76.334,252.087 78.094,251.875 82.393 C 251.719 85.553,244.966 102.282,243.230 103.805 C 240.430 106.264,238.313 106.287,232.198 103.927 C 228.495 102.498,227.629 102.039,228.612 102.027 C 229.917 102.010,230.009 101.818,235.558 87.495 C 240.567 74.567,240.677 74.213,240.080 72.856 C 239.827 72.280,239.994 72.323,243.935 73.834 M218.439 82.304 C 217.222 86.104,216.257 89.234,216.296 89.259 C 216.334 89.284,217.255 89.263,218.341 89.212 L 220.316 89.118 220.345 86.941 C 220.361 85.743,220.399 84.509,220.431 84.199 C 220.550 83.031,220.813 75.395,220.735 75.395 C 220.689 75.395,219.657 78.504,218.439 82.304 M243.634 78.950 C 243.554 79.168,241.675 84.012,239.457 89.717 C 235.056 101.039,235.191 100.504,236.650 100.871 C 240.165 101.757,240.115 101.821,244.262 91.125 C 248.298 80.715,248.297 80.731,245.098 79.099 C 243.826 78.450,243.817 78.449,243.634 78.950 M272.291 88.014 C 272.426 88.139,270.599 93.118,270.307 93.422 C 270.265 93.466,270.084 93.161,269.906 92.744 C 269.494 91.782,268.586 90.930,266.803 89.833 L 265.392 88.965 263.707 91.717 C 262.781 93.231,261.980 94.578,261.928 94.710 C 261.866 94.871,262.289 94.918,263.201 94.852 C 265.822 94.663,267.359 96.485,266.492 98.756 C 265.865 100.397,264.363 100.985,263.986 99.736 C 263.519 98.191,261.569 97.634,260.006 98.600 C 259.302 99.035,258.617 100.082,253.775 108.118 L 253.262 108.971 254.792 109.895 C 256.727 111.064,257.617 111.373,258.592 111.215 C 259.033 111.144,259.368 111.185,259.368 111.310 C 259.368 111.686,255.896 115.593,255.622 115.526 C 255.203 115.423,246.053 109.833,246.051 109.678 C 246.050 109.601,246.343 109.479,246.702 109.407 C 247.880 109.171,248.444 108.355,255.508 96.680 C 262.573 85.003,263.039 84.123,262.740 83.028 C 262.649 82.694,262.624 82.372,262.685 82.311 C 262.780 82.216,271.833 87.591,272.291 88.014 M139.641 83.585 C 141.957 84.768,144.225 88.167,144.747 91.237 C 145.207 93.944,144.102 96.188,141.301 98.231 C 139.403 99.616,139.249 98.745,142.350 104.135 C 146.158 110.754,146.212 110.833,147.354 111.338 C 147.899 111.579,148.311 111.805,148.269 111.840 C 148.172 111.923,142.182 115.350,142.135 115.350 C 142.115 115.350,142.098 114.715,142.096 113.939 L 142.093 112.528 136.889 103.499 C 134.027 98.533,130.931 93.163,130.008 91.567 C 128.338 88.679,127.796 88.068,126.543 87.661 C 125.908 87.455,126.000 87.383,129.200 85.571 C 134.367 82.647,136.871 82.171,139.641 83.585 M135.602 87.396 C 134.708 87.589,133.409 88.184,133.409 88.399 C 133.409 88.502,137.176 95.200,137.371 95.445 C 137.477 95.578,139.156 94.420,139.682 93.852 C 141.707 91.661,138.602 86.748,135.602 87.396 M285.345 97.968 C 286.904 99.506,287.705 100.496,288.173 101.467 C 290.567 106.432,286.685 112.302,281.009 112.302 L 279.060 112.302 278.946 113.561 C 278.799 115.166,277.871 117.163,275.094 121.842 C 270.798 129.082,270.242 130.841,271.851 132.106 C 272.341 132.490,272.334 132.496,271.293 132.501 C 269.366 132.510,268.413 131.179,268.389 128.442 C 268.376 127.050,267.970 125.711,267.347 125.009 C 267.000 124.618,266.985 124.520,267.258 124.425 C 269.658 123.591,275.011 114.788,275.041 111.625 C 275.062 109.434,275.120 109.393,270.047 115.141 C 265.647 120.127,265.097 120.891,264.964 122.201 C 264.900 122.830,264.838 122.791,262.248 120.518 L 259.597 118.192 260.611 117.934 C 261.960 117.592,261.416 118.150,271.286 106.998 C 280.859 96.182,280.811 96.244,280.812 94.844 L 280.813 93.863 281.992 94.844 C 282.640 95.383,284.150 96.789,285.345 97.968 M115.613 98.129 C 116.523 99.113,136.055 115.554,136.919 116.064 C 137.397 116.346,138.158 116.558,138.735 116.570 C 140.059 116.598,140.136 116.487,136.780 119.391 C 133.767 121.999,133.449 122.187,133.852 121.127 C 134.218 120.164,133.656 119.208,131.737 117.535 C 129.686 115.746,129.835 115.771,128.727 117.030 C 126.417 119.654,127.403 123.772,130.389 123.972 L 131.406 124.041 128.522 126.524 C 126.936 127.889,125.576 129.035,125.500 129.069 C 125.424 129.103,125.369 128.493,125.377 127.714 C 125.394 126.134,125.774 126.874,120.998 119.187 C 119.725 117.139,117.241 113.126,115.477 110.271 C 110.611 102.394,110.383 102.068,109.431 101.629 C 108.364 101.137,108.204 101.371,111.608 98.440 L 114.524 95.927 114.805 96.743 C 114.959 97.192,115.323 97.816,115.613 98.129 M280.053 103.814 C 277.420 106.792,277.450 106.584,279.506 107.680 C 282.359 109.201,285.800 105.869,284.174 103.160 C 282.775 100.829,282.679 100.844,280.053 103.814 M116.823 104.897 C 123.735 115.718,124.605 116.978,124.605 116.165 C 124.605 115.992,125.056 115.238,125.608 114.488 L 126.612 113.125 121.827 108.866 C 116.538 104.157,116.159 103.857,116.823 104.897 M302.608 115.247 C 304.830 118.250,305.038 118.635,304.312 118.405 C 304.002 118.306,303.610 118.381,303.269 118.605 C 302.837 118.888,295.643 127.452,294.408 129.154 C 294.068 129.621,306.596 124.609,307.252 124.014 C 307.485 123.804,307.675 123.451,307.675 123.229 C 307.675 122.321,308.136 122.724,309.976 125.238 C 312.137 128.192,312.210 128.358,311.297 128.261 C 310.160 128.142,309.334 128.683,298.646 136.551 C 287.736 144.583,286.758 145.386,286.534 146.505 C 286.333 147.510,286.197 147.402,284.099 144.581 C 282.103 141.896,281.853 141.405,282.607 141.644 C 283.592 141.957,284.918 141.190,290.606 137.018 C 293.820 134.660,296.374 132.731,296.281 132.731 C 296.188 132.731,293.365 133.748,290.007 134.991 C 284.127 137.166,283.413 137.371,283.911 136.744 C 285.491 134.750,291.648 126.632,291.648 126.542 C 291.648 126.307,280.911 134.366,280.079 135.225 C 279.563 135.758,279.233 136.319,279.233 136.660 C 279.233 137.738,278.844 137.428,276.871 134.775 C 274.600 131.721,274.609 131.748,275.920 131.724 C 277.135 131.701,276.325 132.243,288.036 123.621 C 300.236 114.641,299.947 114.876,300.281 113.629 C 300.613 112.388,300.365 112.216,302.608 115.247 M101.295 116.582 C 104.347 118.003,106.343 120.961,106.339 124.057 L 106.338 125.427 106.975 125.334 C 108.256 125.146,110.620 126.021,116.253 128.771 C 123.872 132.490,125.010 132.813,126.220 131.603 C 127.071 130.752,127.088 130.755,127.088 131.738 C 127.088 133.634,126.052 134.593,123.702 134.871 C 121.768 135.100,120.849 135.401,120.062 136.063 C 119.487 136.547,119.314 136.604,119.231 136.339 C 118.484 133.948,107.196 128.411,104.910 129.315 C 103.946 129.695,103.972 129.722,109.589 134.068 C 114.997 138.252,116.137 138.961,117.075 138.725 C 117.920 138.513,117.736 138.871,115.523 141.744 L 113.440 144.450 113.162 143.498 C 112.784 142.201,112.317 141.789,103.499 134.971 C 89.494 124.142,89.751 124.317,88.493 124.716 C 87.771 124.945,87.916 124.676,89.970 121.983 C 94.187 116.452,97.560 114.843,101.295 116.582 M203.530 117.018 C 208.582 118.105,211.279 119.629,217.937 125.159 C 222.104 128.620,223.782 130.442,225.687 133.575 L 226.883 135.541 228.510 135.473 C 231.078 135.366,232.037 135.841,236.191 139.281 C 241.438 143.626,241.497 143.802,238.255 145.463 C 231.086 149.138,224.122 157.689,221.335 166.239 C 218.807 173.996,219.714 180.664,224.076 186.381 C 225.726 188.544,225.746 188.426,223.589 189.289 C 220.659 190.462,217.055 190.295,214.705 188.878 C 213.561 188.188,208.653 184.132,207.057 182.559 C 203.152 178.706,201.940 171.348,204.171 165.025 L 204.489 164.124 203.091 162.917 C 202.322 162.254,200.895 161.060,199.920 160.264 C 196.569 157.529,195.537 154.699,196.826 151.783 C 197.366 150.563,197.272 150.558,198.952 151.885 C 204.089 155.940,208.932 148.379,206.080 140.756 C 205.563 139.375,204.792 139.048,202.077 139.056 C 194.992 139.077,190.611 143.870,189.601 152.704 C 189.447 154.058,189.391 170.766,189.436 202.596 L 189.503 250.451 190.015 252.257 C 190.296 253.251,190.867 254.783,191.284 255.663 L 192.042 257.263 193.350 257.525 C 200.414 258.944,206.491 254.707,209.285 246.412 C 212.619 236.513,212.617 218.769,209.281 214.649 C 208.415 213.579,204.346 214.260,203.175 215.671 C 202.668 216.282,202.310 216.094,199.322 213.639 C 196.126 211.014,196.190 211.116,196.436 209.029 C 197.252 202.113,203.684 199.436,213.530 201.915 C 222.300 204.124,226.573 203.655,234.377 199.627 C 235.001 199.305,235.038 199.327,237.939 201.715 C 241.466 204.617,241.253 204.299,240.447 205.472 C 237.423 209.873,235.132 214.895,233.982 219.646 C 231.040 231.798,233.539 257.458,238.532 266.366 C 239.336 267.800,241.828 267.496,245.018 265.575 C 246.741 264.538,246.406 264.417,250.054 267.405 C 253.693 270.384,253.677 270.355,253.441 273.789 C 252.958 280.817,248.026 285.553,241.190 285.553 C 237.373 285.553,235.919 284.866,230.775 280.629 C 225.747 276.488,224.132 274.410,222.627 270.147 C 221.887 268.053,222.042 268.064,220.655 269.999 C 213.225 280.363,200.345 283.940,189.300 278.708 C 185.858 277.077,179.827 272.456,174.494 267.363 C 171.846 264.834,171.370 264.541,167.518 263.057 C 164.589 261.928,162.010 260.608,160.628 259.530 C 155.872 255.818,150.564 250.973,150.564 250.344 C 150.564 250.258,151.809 250.197,153.330 250.207 C 157.061 250.232,158.056 249.888,160.061 247.876 C 163.785 244.140,164.296 240.546,164.295 218.059 C 164.295 200.720,164.232 199.821,162.745 195.850 L 162.247 194.522 160.682 194.653 L 159.116 194.784 156.204 192.384 L 153.292 189.983 154.016 188.621 C 155.875 185.125,159.626 182.994,163.153 183.428 L 164.342 183.574 164.330 172.080 C 164.315 157.326,164.005 152.611,162.737 147.856 C 162.200 145.844,161.178 143.145,160.885 142.963 C 160.613 142.795,157.263 142.811,156.721 142.983 C 156.316 143.111,150.350 138.499,150.144 137.898 C 149.947 137.322,152.641 135.140,154.903 134.044 C 158.553 132.276,163.174 132.327,166.923 134.178 C 168.785 135.098,168.595 135.171,169.648 133.126 C 176.055 120.685,189.925 114.091,203.530 117.018 M96.696 120.960 C 96.206 121.314,95.634 121.867,95.423 122.189 L 95.040 122.774 97.576 124.745 C 98.971 125.829,100.234 126.807,100.381 126.918 C 100.903 127.312,102.068 124.890,101.962 123.633 C 101.741 121.037,98.712 119.499,96.696 120.960 M85.967 136.466 C 89.265 137.445,90.479 140.907,88.318 143.172 C 87.539 143.989,87.214 143.955,87.042 143.038 C 86.554 140.439,83.070 140.678,83.070 143.311 C 83.070 144.796,83.529 145.100,92.551 149.580 C 102.111 154.328,102.651 154.508,103.684 153.281 C 105.174 151.509,104.401 150.604,99.202 148.029 C 95.367 146.130,94.914 145.960,93.775 145.986 C 92.299 146.021,92.297 146.111,93.824 143.059 C 95.013 140.683,94.498 140.700,98.880 142.894 C 102.819 144.866,104.606 145.463,105.926 145.246 C 106.628 145.131,106.772 145.173,106.772 145.493 C 106.772 145.705,107.283 146.763,107.907 147.845 C 110.801 152.859,108.639 157.569,102.991 158.555 C 102.002 158.728,100.908 159.018,100.560 159.200 C 99.937 159.526,99.909 159.512,98.666 158.243 C 97.505 157.058,96.758 156.633,89.307 152.925 C 82.904 149.738,81.010 148.694,80.253 147.937 C 75.433 143.118,79.677 134.598,85.967 136.466 M319.465 142.132 L 321.839 147.130 319.675 148.647 C 316.866 150.616,317.044 150.605,317.036 148.817 C 317.028 147.001,315.790 144.077,315.079 144.195 C 313.647 144.432,308.972 147.046,309.608 147.253 C 313.125 148.396,312.984 153.273,309.435 153.273 C 308.378 153.273,308.125 152.965,308.411 152.032 C 308.876 150.518,307.136 148.852,305.305 149.059 C 304.537 149.145,295.065 153.435,294.509 153.948 C 293.980 154.436,296.600 158.512,297.723 158.948 C 298.041 159.071,298.182 159.240,298.062 159.354 C 297.824 159.578,292.779 161.026,292.658 160.904 C 292.460 160.706,287.810 150.715,287.882 150.643 C 287.926 150.599,288.294 150.678,288.698 150.818 C 289.666 151.156,290.343 150.943,294.272 149.069 C 295.995 148.247,298.318 147.142,299.436 146.613 C 305.754 143.622,310.345 141.444,312.641 140.346 C 315.227 139.109,316.283 138.289,316.588 137.280 C 316.811 136.543,316.809 136.539,319.465 142.132 M303.189 189.045 C 309.303 193.085,303.884 213.245,297.160 211.476 C 295.687 211.089,295.108 209.658,296.379 209.547 C 298.044 209.401,299.633 207.799,301.033 204.853 C 302.172 202.457,302.256 201.942,301.435 202.370 C 298.714 203.789,295.557 200.806,295.306 196.580 C 294.939 190.374,299.133 186.364,303.189 189.045 M329.363 188.922 C 330.153 189.711,330.223 190.293,329.530 190.293 C 327.332 190.293,324.883 193.353,323.502 197.826 C 322.916 199.722,322.916 199.717,323.500 199.188 C 324.312 198.454,326.776 198.580,327.867 199.412 C 331.733 202.360,330.115 211.093,325.633 211.464 C 321.393 211.816,319.609 208.903,319.933 202.156 C 320.347 193.561,326.028 185.587,329.363 188.922 M87.723 189.433 C 90.492 191.307,89.706 195.034,86.541 195.034 L 85.474 195.034 85.962 194.515 C 87.442 192.940,86.037 190.748,84.398 192.075 C 83.200 193.046,83.829 194.926,86.264 197.649 C 90.004 201.830,90.922 204.617,89.530 207.562 C 87.749 211.329,84.013 211.707,81.095 208.416 L 79.692 206.833 80.639 205.091 C 81.613 203.297,82.295 202.709,83.397 202.709 C 84.089 202.709,84.100 202.778,83.530 203.564 C 81.812 205.937,84.382 209.044,86.357 206.983 C 87.962 205.308,87.243 203.171,83.754 199.249 C 80.874 196.010,80.153 193.300,81.543 190.936 C 82.780 188.831,85.762 188.106,87.723 189.433 M77.529 189.447 C 78.179 192.415,78.152 193.094,77.411 192.424 C 77.074 192.119,76.501 191.974,75.378 191.911 L 73.815 191.823 73.815 194.121 L 73.815 196.419 74.471 195.952 C 75.920 194.920,77.743 195.732,77.743 197.410 C 77.743 198.543,77.362 198.838,76.532 198.348 C 74.489 197.141,73.815 198.407,73.815 203.447 L 73.815 207.511 75.282 207.393 C 76.095 207.328,77.010 207.105,77.333 206.893 C 78.116 206.380,78.132 206.427,77.807 208.363 L 77.526 210.045 73.712 210.107 L 69.897 210.169 70.332 209.689 C 70.975 208.978,71.013 190.386,70.372 189.679 C 69.724 188.962,69.828 188.939,73.698 188.939 C 77.372 188.939,77.419 188.945,77.529 189.447 M100.234 188.995 C 100.238 189.027,100.386 189.861,100.562 190.849 C 100.920 192.860,100.882 193.032,100.213 192.427 C 99.887 192.132,99.393 192.002,98.575 191.995 L 97.404 191.986 97.404 200.462 C 97.404 208.195,97.439 208.990,97.804 209.547 L 98.205 210.158 96.845 210.186 C 96.097 210.202,95.333 210.214,95.147 210.214 C 94.960 210.214,94.567 210.202,94.272 210.186 L 93.736 210.158 94.162 209.297 C 94.560 208.493,94.584 207.886,94.529 200.211 L 94.470 191.986 93.298 191.995 C 92.480 192.002,91.986 192.132,91.660 192.427 C 91.404 192.659,91.156 192.807,91.109 192.756 C 91.048 192.689,91.428 189.978,91.636 188.995 C 91.642 188.964,93.578 188.939,95.937 188.939 C 98.296 188.939,100.229 188.964,100.234 188.995 M293.290 189.550 C 292.658 190.513,292.677 209.732,293.310 210.666 L 293.731 211.287 291.448 211.287 C 290.192 211.287,289.165 211.232,289.165 211.166 C 289.165 211.099,289.343 210.774,289.560 210.443 C 289.941 209.861,290.336 192.551,289.968 192.551 C 289.905 192.551,289.687 192.881,289.483 193.284 C 288.323 195.580,285.553 195.743,285.553 193.515 C 285.553 192.314,286.147 191.721,286.685 192.386 C 287.517 193.412,289.613 191.485,289.665 189.646 L 289.685 188.939 291.687 188.939 L 293.690 188.939 293.290 189.550 M315.087 189.487 C 318.419 191.228,318.605 198.194,315.319 198.194 C 314.722 198.194,314.769 198.281,315.998 199.430 C 321.012 204.120,317.699 212.595,311.366 211.280 C 306.264 210.221,305.668 200.815,310.638 199.799 L 311.333 199.657 309.996 198.619 C 305.012 194.748,309.557 186.598,315.087 189.487 M299.716 191.441 C 297.505 192.729,297.927 199.774,300.215 199.774 C 300.877 199.774,301.573 199.005,301.424 198.437 C 301.277 197.875,301.828 197.790,302.257 198.307 C 302.805 198.966,302.935 198.621,302.935 196.509 C 302.935 192.574,301.540 190.379,299.716 191.441 M311.765 192.242 C 310.942 192.818,310.534 194.008,310.841 194.938 C 311.149 195.871,312.712 197.276,312.829 196.724 C 312.878 196.489,313.048 196.415,313.333 196.506 C 313.618 196.596,313.953 196.451,314.330 196.074 C 316.072 194.332,313.744 190.855,311.765 192.242 M313.328 201.617 C 313.319 202.187,313.284 202.205,312.657 201.969 C 310.250 201.060,309.107 206.076,311.279 208.014 C 313.300 209.816,315.980 207.117,315.306 203.957 C 315.024 202.635,313.342 200.646,313.328 201.617 M324.540 201.720 C 324.452 201.809,324.379 202.169,324.379 202.521 C 324.379 203.299,323.995 203.343,323.131 202.664 L 322.500 202.167 322.638 204.130 C 322.966 208.775,325.799 210.455,326.868 206.638 C 327.637 203.893,325.944 200.316,324.540 201.720 M104.328 208.500 C 105.075 209.176,104.735 210.960,103.837 211.072 C 102.494 211.240,101.806 210.738,101.806 209.590 C 101.806 208.319,103.377 207.640,104.328 208.500 M110.302 262.288 L 113.268 266.540 111.651 268.146 C 110.055 269.731,109.605 270.052,109.842 269.437 C 110.045 268.906,109.528 267.420,108.866 266.636 L 108.239 265.893 99.774 271.878 C 92.496 277.024,91.242 277.994,90.833 278.795 L 90.357 279.727 88.745 277.441 C 86.928 274.862,86.938 274.886,87.665 275.069 C 87.958 275.142,88.542 275.055,88.963 274.875 C 89.914 274.468,105.923 263.155,106.039 262.808 C 106.175 262.402,103.982 260.271,103.428 260.271 C 103.156 260.271,102.935 260.184,102.935 260.077 C 102.935 259.880,106.696 258.044,107.111 258.039 C 107.235 258.037,108.671 259.949,110.302 262.288 M292.417 262.165 C 294.682 263.493,295.010 266.189,293.089 267.700 C 292.231 268.375,291.856 268.316,292.013 267.531 C 292.324 265.976,290.278 265.023,289.234 266.237 C 287.903 267.784,289.939 269.707,301.523 277.845 C 303.444 279.194,305.665 277.288,304.154 275.588 C 302.716 273.970,297.637 270.655,296.597 270.655 C 295.972 270.655,296.077 270.399,297.516 268.421 L 298.667 266.837 301.726 269.082 C 304.488 271.110,306.785 272.297,307.180 271.902 C 307.440 271.642,308.622 275.586,308.633 276.749 C 308.665 280.231,306.452 282.030,301.878 282.239 L 299.805 282.334 299.539 281.692 C 299.149 280.752,297.973 279.759,292.340 275.619 C 289.555 273.571,286.954 271.577,286.560 271.187 C 282.151 266.825,287.172 259.092,292.417 262.165 M120.582 276.079 C 119.896 276.386,118.401 278.151,112.857 285.196 C 105.371 294.709,105.376 294.702,105.348 295.975 C 105.323 297.094,105.361 297.117,102.950 294.527 C 100.729 292.140,100.628 291.981,101.454 292.189 C 102.310 292.404,103.006 291.952,104.366 290.299 L 105.619 288.775 105.011 288.206 C 102.837 286.173,99.343 286.791,99.139 289.245 C 99.049 290.323,99.099 290.353,96.770 287.826 C 94.468 285.328,94.508 285.440,95.912 285.439 C 97.575 285.438,116.160 273.077,116.743 271.585 C 116.973 270.998,116.991 271.011,119.203 273.346 L 121.432 275.699 120.582 276.079 M281.039 271.614 C 281.041 272.568,281.876 273.488,289.698 281.148 C 297.730 289.015,298.134 289.369,299.092 289.383 C 299.583 289.390,299.402 289.642,297.630 291.422 C 295.664 293.397,295.142 293.796,295.398 293.131 C 295.663 292.439,294.665 291.161,291.006 287.507 L 287.205 283.711 286.209 283.994 C 285.662 284.150,284.221 284.280,283.006 284.284 L 280.798 284.290 281.539 284.994 C 281.947 285.382,284.475 287.850,287.159 290.479 C 291.415 294.650,292.128 295.260,292.746 295.260 C 293.751 295.260,293.685 295.377,291.422 297.630 C 289.535 299.508,289.391 299.607,289.391 299.025 C 289.391 297.925,288.853 297.286,283.367 291.868 C 272.639 281.272,272.630 281.264,271.706 281.264 C 271.252 281.264,270.880 281.186,270.880 281.090 C 270.880 280.869,274.908 276.851,274.993 276.987 C 275.028 277.043,275.211 277.389,275.399 277.758 C 276.191 279.304,279.101 280.593,282.167 280.755 L 284.086 280.857 281.603 278.336 C 279.093 275.788,278.279 275.169,277.438 275.169 C 276.719 275.169,276.846 274.970,278.832 272.973 C 280.832 270.963,281.038 270.836,281.039 271.614 M109.882 280.857 L 104.978 284.280 106.084 284.912 C 106.693 285.259,107.255 285.647,107.333 285.774 C 107.595 286.198,107.828 286.015,109.268 284.255 C 110.055 283.293,111.649 281.363,112.810 279.966 C 113.970 278.569,114.890 277.428,114.853 277.430 C 114.816 277.432,112.579 278.974,109.882 280.857 M129.381 282.977 C 131.410 284.664,133.206 286.174,133.372 286.334 C 133.622 286.575,133.491 286.938,132.603 288.467 C 131.317 290.680,131.255 290.728,130.941 289.775 C 130.805 289.364,130.255 288.597,129.720 288.071 L 128.745 287.115 122.243 294.944 C 115.453 303.120,115.128 303.560,115.126 304.571 C 115.124 305.413,115.157 305.430,112.726 303.385 C 111.016 301.947,110.661 301.551,110.988 301.445 C 111.214 301.372,111.668 301.212,111.997 301.090 C 112.456 300.919,122.076 289.634,125.484 285.267 C 126.021 284.580,124.104 283.070,122.695 283.070 C 121.829 283.070,121.976 282.824,123.746 281.304 C 125.749 279.585,125.052 279.378,129.381 282.977 M269.410 282.675 C 269.200 283.528,269.874 284.476,276.507 292.664 C 284.112 302.051,283.854 301.759,284.968 302.240 L 285.850 302.621 283.727 304.358 C 281.263 306.374,281.360 306.336,281.330 305.276 C 281.302 304.271,281.714 304.827,273.525 294.750 C 266.786 286.458,266.368 286.005,265.459 286.005 C 264.711 286.005,264.962 285.690,267.156 283.872 C 269.373 282.035,269.596 281.917,269.410 282.675 M140.156 290.908 C 142.342 292.336,144.170 293.540,144.217 293.584 C 144.315 293.674,142.703 297.535,142.458 297.800 C 142.371 297.894,142.121 297.564,141.901 297.066 C 141.559 296.290,139.631 294.572,139.407 294.843 C 139.190 295.104,128.462 311.716,128.250 312.118 C 128.108 312.390,127.991 312.984,127.991 313.440 C 127.991 314.459,127.982 314.457,125.253 312.621 L 123.183 311.229 123.837 310.947 C 124.822 310.522,125.420 309.758,128.428 305.079 C 129.944 302.720,132.249 299.165,133.550 297.178 C 134.850 295.192,136.013 293.391,136.134 293.177 C 136.441 292.631,134.820 291.634,133.325 291.449 L 132.199 291.309 133.763 289.597 C 135.078 288.159,135.396 287.920,135.755 288.099 C 135.990 288.216,137.971 289.480,140.156 290.908 M262.908 289.862 C 266.448 291.576,266.590 296.840,263.096 296.840 C 262.204 296.840,262.207 296.844,262.557 296.077 C 263.417 294.189,261.050 292.576,259.727 294.148 C 258.719 295.345,258.701 295.304,263.583 302.822 C 268.542 310.456,269.105 310.969,270.737 309.337 C 271.954 308.120,270.755 304.289,269.156 304.289 C 268.565 304.289,268.637 303.842,269.282 303.508 C 270.431 302.914,271.594 303.060,272.831 303.952 C 273.434 304.387,274.234 304.902,274.609 305.097 L 275.291 305.451 275.138 307.536 C 274.760 312.709,271.397 315.136,267.137 313.310 C 266.567 313.066,265.718 312.805,265.251 312.730 C 264.500 312.610,264.399 312.518,264.383 311.937 C 264.351 310.834,263.419 309.156,259.519 303.187 C 255.326 296.769,255.011 296.025,255.522 293.741 C 256.266 290.418,260.003 288.456,262.908 289.862 M152.273 297.377 C 155.498 298.879,156.297 303.097,153.813 305.510 L 153.051 306.250 153.629 306.513 L 154.206 306.776 153.554 307.325 C 152.434 308.267,148.210 317.389,148.210 318.865 C 148.210 319.950,148.158 320.065,147.525 320.372 C 147.148 320.555,146.251 321.033,145.531 321.436 C 142.307 323.238,138.112 321.466,137.575 318.075 C 137.505 317.632,137.264 316.675,137.040 315.949 L 136.633 314.630 137.673 313.577 C 138.540 312.699,139.238 311.419,141.857 305.915 C 145.180 298.930,145.805 297.995,147.699 297.171 C 148.859 296.666,150.949 296.760,152.273 297.377 M249.178 298.629 C 252.001 300.070,253.447 304.601,251.971 307.384 C 251.377 308.504,251.366 308.578,251.793 308.578 C 252.442 308.578,254.796 311.079,256.858 313.958 C 260.901 319.606,262.186 320.832,263.525 320.323 C 264.348 320.010,264.308 320.603,263.449 321.462 C 262.652 322.258,261.977 322.298,260.137 321.658 C 259.316 321.372,258.396 321.220,257.744 321.262 L 256.684 321.332 256.444 320.376 C 255.515 316.686,248.307 308.322,248.307 310.935 C 248.307 312.438,253.561 322.122,254.376 322.122 C 254.989 322.122,254.353 322.516,251.869 323.674 L 249.448 324.803 249.581 323.830 C 249.706 322.919,249.414 322.209,245.041 312.806 C 239.987 301.935,240.003 301.966,238.993 301.352 L 238.310 300.936 239.076 300.604 C 239.497 300.422,240.655 299.889,241.648 299.420 C 244.863 297.901,247.258 297.650,249.178 298.629 M148.696 301.035 C 148.067 301.376,146.989 303.447,142.506 312.929 C 140.850 316.433,140.749 317.321,141.940 317.905 C 143.457 318.649,143.878 318.156,146.754 312.266 C 148.640 308.403,149.358 307.149,149.908 306.757 L 150.621 306.250 150.034 305.942 C 149.520 305.673,148.816 304.779,149.022 304.658 C 149.063 304.634,149.484 304.438,149.956 304.224 C 151.649 303.454,151.791 301.498,150.199 300.893 C 149.485 300.621,149.453 300.624,148.696 301.035 M244.977 301.862 C 244.048 302.160,244.032 302.045,245.404 304.969 L 246.564 307.443 247.438 306.952 C 250.832 305.044,248.714 300.663,244.977 301.862 M236.919 303.861 C 237.992 305.997,238.045 306.297,237.280 305.887 C 236.602 305.524,235.756 305.588,234.077 306.129 L 232.569 306.615 233.348 309.120 C 234.195 311.842,234.415 312.254,234.640 311.545 C 235.235 309.670,238.276 309.341,239.162 311.056 C 239.764 312.219,239.364 313.678,238.578 313.191 C 237.644 312.614,236.297 313.311,235.723 314.669 C 235.331 315.595,237.920 324.595,238.581 324.602 C 239.526 324.611,241.491 323.743,242.259 322.977 L 243.098 322.139 243.216 322.864 C 243.280 323.263,243.437 324.192,243.563 324.929 C 243.689 325.665,243.792 326.396,243.792 326.552 C 243.792 326.815,235.282 329.714,235.086 329.518 C 235.041 329.472,235.115 329.072,235.251 328.629 C 235.480 327.883,235.239 327.008,232.058 317.024 C 228.560 306.048,228.282 305.315,227.519 305.073 C 227.282 304.997,227.088 304.847,227.088 304.738 C 227.088 304.560,234.922 301.886,235.607 301.829 C 235.761 301.816,236.352 302.731,236.919 303.861 M166.102 302.831 C 169.555 303.857,171.101 308.747,168.660 310.922 C 168.123 311.400,168.207 311.738,168.862 311.738 C 169.425 311.738,169.418 312.013,168.842 312.534 C 167.616 313.644,164.712 324.311,165.306 325.524 C 165.431 325.778,165.321 325.951,164.919 326.135 C 164.611 326.275,163.960 326.750,163.473 327.190 C 160.160 330.183,155.639 328.987,154.276 324.758 C 154.069 324.115,153.705 323.248,153.467 322.831 L 153.034 322.073 153.583 321.564 C 154.437 320.773,154.667 320.192,156.950 313.041 C 158.128 309.352,159.359 305.878,159.686 305.319 C 161.025 303.035,163.525 302.066,166.102 302.831 M225.275 305.135 C 225.271 305.229,225.119 305.502,224.936 305.743 C 224.424 306.421,224.456 306.617,226.979 318.000 C 229.477 329.273,229.516 329.410,230.394 330.153 L 230.949 330.623 228.624 331.137 C 227.345 331.419,226.053 331.705,225.753 331.773 C 225.284 331.879,225.234 331.836,225.396 331.467 C 225.905 330.309,225.700 328.966,223.482 318.962 C 220.857 307.119,220.929 307.379,220.132 306.798 C 219.353 306.231,219.319 306.251,222.235 305.585 C 225.081 304.935,225.285 304.905,225.275 305.135 M163.098 307.054 C 162.472 307.598,157.788 321.744,157.788 323.089 C 157.788 323.834,158.684 324.831,159.354 324.831 C 160.516 324.831,161.080 323.809,162.652 318.849 C 164.080 314.346,164.993 312.190,165.472 312.190 C 165.591 312.190,165.688 312.088,165.688 311.964 C 165.688 311.840,165.550 311.738,165.380 311.738 C 164.274 311.738,163.608 310.456,164.545 310.129 C 166.098 309.588,166.433 307.517,165.083 306.806 C 164.342 306.416,163.746 306.490,163.098 307.054 M215.639 308.205 C 221.064 310.859,219.998 319.722,214.092 321.069 C 213.272 321.256,212.551 321.459,212.489 321.521 C 211.912 322.099,213.836 332.718,214.595 333.145 C 214.939 333.337,214.952 333.397,214.673 333.488 C 214.224 333.633,210.406 334.086,209.628 334.086 L 209.016 334.086 209.515 333.411 C 210.089 332.634,210.060 332.173,208.789 321.896 C 208.428 318.979,208.076 316.084,208.007 315.463 C 207.408 310.085,207.311 309.620,206.620 308.798 C 206.309 308.429,206.089 308.118,206.131 308.107 C 209.222 307.327,213.943 307.375,215.639 308.205 M211.255 311.168 C 211.121 311.302,211.863 317.582,212.032 317.751 C 212.318 318.036,214.682 317.126,215.028 316.597 C 215.901 315.266,215.251 312.049,213.976 311.390 C 213.383 311.083,211.494 310.929,211.255 311.168 M188.701 321.110 C 192.233 321.426,195.157 321.718,195.198 321.759 C 195.301 321.862,195.739 325.781,195.657 325.863 C 195.621 325.899,194.916 325.741,194.089 325.512 C 190.718 324.577,188.284 324.288,183.691 324.277 C 180.874 324.270,179.234 324.183,179.235 324.041 C 179.238 323.842,179.954 321.410,180.255 320.573 C 180.336 320.349,180.625 320.302,181.323 320.400 C 181.849 320.474,185.170 320.794,188.701 321.110 " stroke="none" fill="#fbfbfb" fill-rule="evenodd"></path><path id="path3" d="M215.340 123.321 C 215.894 123.903,216.377 124.379,216.415 124.379 C 216.619 124.379,215.852 123.499,215.148 122.926 C 214.433 122.343,214.456 122.391,215.340 123.321 M187.798 137.415 L 187.020 138.262 187.867 137.484 C 188.332 137.056,188.713 136.675,188.713 136.637 C 188.713 136.465,188.522 136.627,187.798 137.415 M152.309 137.860 C 152.709 137.910,153.421 137.911,153.889 137.862 C 154.357 137.813,154.029 137.773,153.160 137.772 C 152.291 137.771,151.908 137.811,152.309 137.860 M224.937 145.880 L 223.589 147.291 225.000 145.944 C 225.776 145.203,226.411 144.568,226.411 144.533 C 226.411 144.366,226.188 144.570,224.937 145.880 M183.406 196.614 C 183.406 222.128,183.433 232.565,183.465 219.808 C 183.497 207.051,183.497 186.177,183.465 173.420 C 183.433 160.663,183.406 171.100,183.406 196.614 M213.846 169.526 C 213.846 170.457,213.885 170.838,213.934 170.372 C 213.983 169.907,213.983 169.145,213.934 168.679 C 213.885 168.214,213.846 168.595,213.846 169.526 M160.158 191.874 C 160.643 192.370,161.090 192.777,161.153 192.777 C 161.215 192.777,160.869 192.370,160.384 191.874 C 159.899 191.377,159.451 190.971,159.389 190.971 C 159.327 190.971,159.673 191.377,160.158 191.874 M200.734 209.191 C 201.075 209.243,201.634 209.243,201.975 209.191 C 202.317 209.139,202.037 209.097,201.354 209.097 C 200.672 209.097,200.392 209.139,200.734 209.191 M226.693 222.460 C 226.696 222.957,226.742 223.134,226.796 222.853 C 226.850 222.572,226.848 222.166,226.792 221.950 C 226.735 221.734,226.691 221.964,226.693 222.460 M226.472 227.314 C 226.472 227.872,226.516 228.101,226.570 227.822 C 226.624 227.542,226.624 227.085,226.570 226.806 C 226.516 226.527,226.472 226.755,226.472 227.314 M226.704 232.957 C 226.704 233.640,226.747 233.919,226.798 233.578 C 226.850 233.236,226.850 232.678,226.798 232.336 C 226.747 231.995,226.704 232.274,226.704 232.957 M226.915 236.569 C 226.915 237.003,226.961 237.181,227.018 236.964 C 227.075 236.747,227.075 236.391,227.018 236.174 C 226.961 235.957,226.915 236.134,226.915 236.569 M154.812 254.740 C 155.181 255.051,155.570 255.304,155.676 255.304 C 155.917 255.302,154.584 254.195,154.328 254.184 C 154.225 254.180,154.443 254.430,154.812 254.740 M220.143 258.014 C 220.143 258.448,220.189 258.626,220.246 258.409 C 220.303 258.191,220.303 257.836,220.246 257.619 C 220.189 257.401,220.143 257.579,220.143 258.014 M170.767 263.657 C 171.630 264.526,172.386 265.237,172.448 265.237 C 172.510 265.237,171.856 264.526,170.993 263.657 C 170.131 262.788,169.374 262.077,169.312 262.077 C 169.250 262.077,169.905 262.788,170.767 263.657 M234.876 265.011 C 235.361 265.508,235.808 265.914,235.870 265.914 C 235.932 265.914,235.587 265.508,235.102 265.011 C 234.617 264.515,234.169 264.108,234.107 264.108 C 234.045 264.108,234.391 264.515,234.876 265.011 M247.466 267.946 C 247.466 268.505,247.510 268.733,247.563 268.454 C 247.617 268.174,247.617 267.717,247.563 267.438 C 247.510 267.159,247.466 267.387,247.466 267.946 M178.379 270.782 C 178.717 271.133,179.046 271.368,179.110 271.304 C 179.174 271.240,178.898 270.952,178.496 270.665 L 177.765 270.144 178.379 270.782 M228.266 278.450 C 228.604 278.805,228.921 279.050,228.970 278.995 C 229.020 278.939,228.743 278.649,228.356 278.349 L 227.652 277.804 228.266 278.450 " stroke="none" fill="#8b9271" fill-rule="evenodd"></path><path id="path4" d="M157.619 142.819 C 157.836 142.876,158.191 142.876,158.409 142.819 C 158.626 142.762,158.448 142.716,158.014 142.716 C 157.579 142.716,157.401 142.762,157.619 142.819 M189.275 201.580 C 189.275 226.970,189.302 237.356,189.334 224.661 C 189.366 211.967,189.366 191.194,189.334 178.499 C 189.302 165.804,189.275 176.191,189.275 201.580 M232.600 232.393 C 232.600 234.752,232.633 235.686,232.674 234.469 C 232.715 233.252,232.715 231.322,232.674 230.180 C 232.633 229.038,232.600 230.034,232.600 232.393 M232.793 239.729 C 232.793 240.288,232.837 240.516,232.891 240.237 C 232.944 239.958,232.944 239.501,232.891 239.221 C 232.837 238.942,232.793 239.170,232.793 239.729 " stroke="none" fill="#89a1af" fill-rule="evenodd"></path></g></svg>