<?xml version="1.0" encoding="UTF-8" standalone="no"?>
<!DOCTYPE svg PUBLIC "-//W3C//DTD SVG 1.1//EN" "http://www.w3.org/Graphics/SVG/1.1/DTD/svg11.dtd">
<svg width="100%" height="100%" viewBox="0 0 1772 1772" version="1.1" xmlns="http://www.w3.org/2000/svg" xmlns:xlink="http://www.w3.org/1999/xlink" xml:space="preserve" xmlns:serif="http://www.serif.com/" style="fill-rule:evenodd;clip-rule:evenodd;stroke-linejoin:round;stroke-miterlimit:2;">
    <g transform="matrix(1.575195,0,0,1.575195,29.283109,642.149975)">
        <path d="M325.329,128.013C325.556,129.306 325.79,130.757 325.972,132.446C326.667,138.891 327.126,138.771 338.956,212.431C340.909,224.594 345.94,221.939 346.368,224.541C346.553,225.664 345.973,225.882 332.569,227.988C331.602,228.14 320.751,229.844 320.5,230.039C319.975,230.446 319.847,231.239 319.323,231.647C317.684,229.53 318.437,229.166 320.415,227.401C324.859,223.438 322.417,214.26 322.584,213.875C322.866,213.224 323.061,204.477 320.529,204.216C316.561,203.808 289.017,213.45 308.863,240.218C309.197,240.669 312.161,243.9 313.571,245.423C318.007,250.215 327.392,254.372 329.167,255.251C331.241,256.277 333.431,256.376 336.338,257.855C339.369,259.397 339.467,258.956 342.642,260.022C346.469,261.307 346.614,260.52 350.486,261.546C360.599,264.225 360.734,263.298 366.483,263.562C419.605,266.003 448.821,254.433 449.474,254.34C454.089,253.687 453.884,252.958 458.447,252.195C459.844,251.962 462.268,250.615 462.518,250.548C465.015,249.874 465.066,250.284 467.511,249.53C478.355,246.186 478.446,246.51 479.341,246.099C483.85,244.033 497.123,240.347 498.62,239.807C503.525,238.036 503.379,237.84 508.381,236.187C515.089,233.971 514.936,233.725 515.516,233.54C520.831,231.838 525.441,229.534 526.472,229.369C530.483,228.727 542.336,223.184 554.342,219.086C555.304,218.758 554.891,218.224 555.794,217.892C555.965,217.829 556.135,218.169 556.302,218.095C556.477,218.018 556.369,217.669 556.531,217.567C557.449,216.989 557.879,218.195 569.354,213.172C576.858,209.887 584.484,207.438 587.356,206.174C597.92,201.526 598.402,202.762 600.395,201.335C602.882,199.554 612.366,197.194 619.355,194.175C620.611,193.632 622.111,192.984 635.494,188.485C643.509,185.791 644.813,184.747 645.52,184.554C655.637,181.782 655.545,181.681 665.511,178.529C675.091,175.5 690.427,171.596 691.375,171.157C694.444,169.737 699.059,169.552 701.606,168.822C711.438,166.004 711.561,166.507 712.369,166.14C716.179,164.411 716.463,165.691 720.5,164.501C727.784,162.354 733.467,162.643 737.509,161.528C743.745,159.808 748.534,160.284 750.588,159.792C761.338,157.217 764.092,158.76 769.581,157.805C777.418,156.441 777.554,158.004 781.601,156.834C785.451,155.721 806.209,156.433 806.491,156.528C811.798,158.328 812.054,156.256 817.49,157.536C822.981,158.828 828.503,157.93 830.487,158.545C836.969,160.554 840.938,159.529 845.625,161.047C849.354,162.255 859.609,163.072 861.601,164.22C862.763,164.89 866.122,165.311 866.523,165.361C867.363,165.466 875.256,168.73 878.536,169.342C881.358,169.869 896.032,177.278 900.183,179.902C902.59,181.424 902.269,181.784 904.684,183.194C906.341,184.162 906.638,183.742 907.757,185.272C907.951,185.537 909.134,187.154 910.76,188.064C912.993,189.312 912.773,189.521 914.764,191.085C914.8,191.496 913.926,191.615 913.962,192.026C913.987,192.321 914.651,191.846 914.849,192.066C915.071,192.313 914.761,192.757 914.893,193.062L917.615,196.407C924.112,205.877 925.444,204.362 925.557,204.441C925.776,204.596 925.506,205.059 925.712,205.231C925.952,205.432 926.408,205.147 926.645,205.352C926.848,205.527 926.541,206.009 926.771,206.144L928.983,206.294C929.799,207.463 931.167,208.849 931.711,209.059C932.78,209.471 935.816,210.642 944.365,215.777C947.142,217.446 947.551,216.302 950.328,217.859C952.686,219.182 952.906,218.584 955.331,219.859C959.274,221.931 963.297,222.352 968.636,224.049C971.549,224.975 971.712,224.087 974.604,225.087C976.488,225.739 979.432,226.758 999.495,226.263C1010.349,225.995 1010.467,221.855 1014.608,224.325C1013.298,227.06 1013.348,227.067 1013.194,227.279C1003.534,240.471 962.389,234.185 945.357,224.806C941.959,222.934 941.698,223.819 941.422,223.641C940.848,223.271 940.719,222.452 940.231,221.974C940.022,221.769 939.693,221.734 939.408,221.67C938.225,221.403 938.139,221.647 937.341,220.768C937.282,220.703 936.563,220.305 934.291,218.825C928.496,215.05 928.055,214.276 927.437,215.477C927.204,215.932 927.418,215.952 928.564,219.479C930.079,224.142 933.804,251.687 915.888,268.903C897.857,286.229 874.012,278.655 870.488,277.535C867.632,276.628 867.583,276.848 867.339,276.759C866.904,276.602 866.713,275.902 866.251,275.901C865.815,275.899 865.695,276.754 865.26,276.753L864.208,275.945C863.965,275.738 864.37,275.198 864.127,274.991C864.015,274.895 863.994,274.968 862.309,274.68C860.431,272.732 852.28,266.37 848.854,259.321C843.778,248.876 844.177,236.508 844.242,234.488C844.261,233.921 844.559,234.006 845.314,227.471C845.381,226.89 845.59,226.952 847.557,220.524C848.357,217.908 857.487,202.574 869.521,204.355C873.704,204.974 877.126,207.83 877.683,208.295C877.715,208.649 876.905,208.704 876.937,209.058C876.963,209.361 877.775,208.949 878.772,212.379C879.215,213.903 881.689,217.002 878.543,223.522C876.414,227.935 865.934,235.94 857.061,224.884C853.934,220.987 849.225,237.616 850.394,244.516C850.66,246.082 851.143,253.36 856.727,260.325C857.147,260.849 860.124,264.563 862.717,266.205C862.965,266.362 863.347,266.223 863.573,266.41C863.753,266.558 863.601,266.925 863.776,267.078C864.101,267.364 864.444,267.244 864.5,267.224C865.198,266.979 864.946,266.668 865.686,266.408C867.477,269.015 867.901,268.509 872.493,270.517C872.867,270.68 880.318,273.13 884.499,272.999C891.872,272.768 906.273,268.696 911.288,262.336C916.193,256.116 916.087,256.065 916.585,254.544C916.827,253.804 917.994,252.649 918.105,252.341C920.554,245.568 920.968,245.649 921.354,238.484C921.469,236.346 922.179,236.472 922.176,233.498C922.172,230.108 920.345,218.01 919.34,216.6C917.749,214.368 918.74,213.876 917.092,211.731C915.527,209.695 916.149,209.387 915.063,207.773C906.756,195.427 904.381,195.652 903.286,194.959C903.296,194.236 904.137,194.726 904.147,193.95C904.148,193.881 904.039,194.498 903.302,193.807C903.099,193.617 903.318,193.19 903.124,192.99C902.929,192.79 902.54,192.945 902.311,192.786C901.918,192.513 901.719,192.015 901.326,191.742L898.507,189.49C898.142,189.198 898.147,189.234 893.669,186.211C866.399,167.798 833.326,179.43 828.384,181.168C825.494,182.184 822.505,177.829 808.464,174.675C776.939,167.592 761.579,170.454 753.518,170.831C730.887,171.891 730.991,172.538 708.439,175.127C700.341,176.057 650.055,190.963 637.357,195.417C637.225,195.591 636.889,195.506 636.757,195.68C636.302,196.281 636.766,197.425 637.503,197.168C637.888,197.033 638.123,196.603 638.509,196.469C639.085,196.436 641.247,196.312 645.551,194.877C646.809,194.458 656.608,192.133 657.572,191.904C681.43,186.243 698.899,186.149 706.565,184.854C708.549,185.288 708.516,185.581 714.502,185.316C727.548,184.794 727.501,185.331 740.517,186.368C741.253,186.427 740.991,187.353 749.523,188.36C750.354,188.458 750.216,188.895 759.483,191.544C761.65,192.164 767.008,194.866 767.646,195.188C769.298,196.02 775.608,199.202 786.7,208.273C786.765,208.914 785.891,208.411 785.953,209.022C786.032,209.797 786.394,209.491 786.884,210.084C787.196,210.463 787.356,211.013 787.788,211.245C788.096,211.411 788.598,210.869 788.829,211.131C789.09,211.426 788.47,212.009 788.727,212.308C788.954,212.571 789.549,211.948 789.766,212.219C789.865,212.343 788.699,212.437 789.933,214.189C806.634,237.9 791.915,261.661 790.359,263.371C784.507,269.801 778.275,267.017 774.112,266.811C771.996,264.662 769.831,264.866 767.56,257.48C766.648,254.514 768.091,248.314 770.658,245.649C777.277,238.774 787.349,244.649 787.337,240.485C787.302,228.81 784.183,222.741 782.268,219.623C779.873,215.722 779.429,214.497 777.445,213.601C776.915,213.362 774.644,211.859 774.405,211.701C774.597,211.241 775.1,210.959 775.292,210.5C775.521,209.951 763.809,200.925 748.556,197.248C744.649,196.307 723.829,191.288 698.475,193.213C647.419,197.088 608.069,210.729 592.562,214.737C567.434,221.232 536.45,238.612 468.509,259.531C405.835,278.828 350.854,275.37 327.384,263.768C326.363,263.263 326.394,263.315 325.326,262.854C324.463,262.482 320.861,260.723 318.972,259.901C317.928,259.09 308.33,251.688 306.822,250.173C305.021,248.363 303.786,246.87 303.511,246.493C301.9,244.282 294.328,236.862 290.807,237.809C286.56,238.953 284.85,240.681 279.498,237.506L279.321,234.094C288.194,226.675 286.719,213.257 287.563,210.519C289.757,203.396 298.423,136.892 300.801,127.587C302.355,121.503 296.246,119.136 297.53,117.522C298.385,116.446 314.265,115.129 315.597,114.819C321.519,113.439 321.468,113.365 327.51,113.219C323.449,119.705 324.332,122.348 325.329,128.013ZM319.067,183.553C319.071,182.437 318.21,177.684 318.138,177.022C316.76,164.4 314.446,155.888 314.083,145.559C314.073,145.257 313.957,141.96 313.216,141.888C312.91,141.858 312.734,142.275 312.465,142.424C311.33,143.05 312.499,143.578 310.385,158.487C309.978,161.361 305.352,193.993 305.61,194.457C306.185,195.492 306.55,194.704 314.798,190.798C315.149,190.632 315.661,190.76 315.914,190.465C316.13,190.213 315.721,189.721 315.937,189.468C320.178,191.285 319.051,188.162 319.067,183.553Z" style="fill-opacity:0.99;"/>
    </g>
    <g transform="matrix(1.575195,0,0,1.575195,29.283109,642.149975)">
        <path d="M173.628,68.874C173.66,69.309 174.158,69.417 174.19,69.852C174.211,70.137 174.388,70.321 174.562,70.549C174.78,70.834 174.813,70.821 175.036,71.102C175.219,71.332 175.39,71.706 175.569,71.939C175.75,72.175 175.241,71.787 177.288,74.637C180.44,79.028 182.115,87.007 183.578,87.136C185.112,87.272 186.586,83.515 192.484,84.554C198.992,85.7 199.158,87.864 200.716,89.039C195.997,94.812 188.234,93.472 176.264,112.362C166.849,127.22 166.872,143.611 174.817,153.25C176.748,155.593 177.454,156.708 174.585,157.712C166.385,160.581 166.11,159.094 164.358,158.993C163.792,158.96 163.314,158.908 162.842,158.829C160.276,157.632 160.82,158.291 158.788,156.221C156.538,153.93 156.636,153.913 154.823,151.309C152.341,147.744 152.879,147.369 152.253,144.434C149.531,131.674 156.333,124.81 155.776,123.339C155.333,122.166 150.351,122.892 150.297,122.918C149.914,123.099 149.533,122.704 149.15,122.885C148.99,122.735 147.777,122.275 147.22,121.893C146.408,121.337 140.5,117.293 142.548,110.517C143.769,106.476 145.445,107.564 148.71,110.283C150.933,112.133 155.498,108.832 156.07,107.282C158.145,101.657 159.192,99.03 156.221,92.678C154.31,80.328 131.951,79.456 126.415,93.462C123.186,101.634 123.568,101.933 123.568,193.5C123.568,252.988 122.388,254.876 131.676,263.285C135.009,266.304 138.62,266.336 142.497,266.242C150.13,266.058 153.693,262.332 157.126,258.225C162.975,251.23 164.07,236.355 164.525,234.507C165.67,229.864 165.266,214.14 164.81,212.405C162.706,204.391 161.164,200.922 160.05,199.85C151.731,191.84 147.718,195.09 142.536,197.487C142.411,196.692 141.836,193.009 144.836,187.69C146.66,184.456 147.398,185.273 154.343,182.108C159.453,179.778 172.695,185.187 179.503,185.29C188.672,185.427 191.791,182.886 198.435,180.405L199.713,181.5C194.687,189.388 184.55,200.247 188.974,243.458C189.094,244.626 190.326,251.785 190.45,252.508C194.498,276.031 203.336,280.663 204.615,280.246C205.126,280.079 205.605,280.604 206.116,280.437C206.494,280.785 208.268,281.461 212.354,279.189C215.901,277.216 215.289,277.018 218.68,278.07C218.323,278.906 219.003,278.638 218.655,279.452C218.622,279.528 218.601,279.577 218.677,280.48C218.767,281.544 219.306,287.954 215.361,293.402C207.104,304.804 193.369,300.446 191.286,299.69C187.955,296.622 183.649,291.825 181.165,283.737C176.824,271.631 179.361,264.496 176.848,265.925C176.649,266.039 176.07,269.092 171.185,276.281C158.226,295.347 138.606,296.48 126.667,292.079C124.976,291.456 124.871,291.732 123.41,290.655C121.029,288.899 110.58,282.623 109.455,281.547C105.724,277.976 104.495,275.454 103.49,274.512C103.394,274.421 103.425,273.946 102.555,273.436C97.686,270.58 97.965,270.157 92.683,268.042C89.892,266.925 88.801,266.603 88.509,266.482C85.836,265.371 81.578,263.942 80.344,262.656C75.45,257.559 75.212,257.772 74.929,257.227C72.78,253.096 80.264,258.039 88.252,252.18C88.72,251.836 92.046,246.584 92.228,245.443C92.764,242.07 93.965,239.938 94.087,238.453C94.415,234.444 94.335,186.179 94.181,181.521C94.097,178.999 91.809,174.371 91.383,173.96C86.518,173.763 86.427,173.69 85.357,172.655C79.559,167.049 77.119,166.156 78.912,163.822C81.473,160.489 81.231,160.277 84.694,157.812C88.609,155.026 91.554,156.605 93.605,155.644C94.394,155.273 94.292,154.952 94.288,125.5C94.287,113.888 94.22,113.929 92.159,102.567C92.053,101.983 89.897,95.32 88.952,94.435C87.491,93.064 82.97,86.008 74.122,89.837C73.973,89.628 73.55,89.778 73.401,89.57C72.469,88.27 74.429,86.962 74.706,86.711C79.855,82.048 81.989,82.045 83.512,81.531C97.282,76.876 100.255,87.408 102.734,81.627C103.032,80.933 105.278,75.697 107.442,73.448C109.736,71.066 111.757,68.345 114.359,66.307C121.585,60.646 126.268,59.458 127.423,59.165C129.501,58.638 130.19,57.493 131.479,57.366C134.545,57.063 134.522,57.284 137.514,56.549C141.973,55.455 153.542,56.904 155.481,57.556C165.242,60.835 164.899,62.12 168.482,63.529C169.103,63.773 167.488,64.218 173.628,68.874Z" style="fill-opacity:1;"/>
    </g>
    <g transform="matrix(1.575195,0,0,1.575195,29.283109,642.149975)">
        <path d="M692.732,46.069C692.901,46.354 692.748,46.759 692.916,47.044C693.155,47.449 693.677,47.64 693.903,48.052C694.085,48.383 693.842,48.437 695.932,52.314C698.315,56.733 697.99,56.995 697.99,106.5C697.99,124.341 700.123,138.411 684.577,150.603C673.708,159.129 653.088,158.481 644.443,162.537C644.097,161.724 642.98,161.612 644.283,160.261C644.527,160.007 645.028,159.487 646.787,156.641C648.519,153.838 648.259,151.202 648.259,102.5C648.259,52.396 648.57,51.776 646.215,49.821C643.897,47.896 641.529,47.842 643.831,45.845C645.134,44.715 645.711,46.399 654.518,43.558C656.977,42.765 657.079,43.375 659.522,42.566C660.296,42.309 660.518,43.463 669.515,40.548C670.897,40.1 682.197,39.72 684.328,40.861C689.247,43.495 689.156,43.563 692.732,46.069ZM673.675,139.459C673.889,139.208 673.988,138.871 674.421,138.692C674.598,138.619 675.014,138.448 676.395,137.332C682.068,132.75 682.104,126.551 682.111,125.5L682.11,66.507C682.035,64.086 681.794,62.471 681.736,62.213C681.701,62.055 681.634,61.829 681.514,61.493C679.42,55.63 667.314,56.16 665.289,58.299C664.62,59.005 664.697,59.173 664.697,131.5C664.697,138.658 662.535,143.33 669.374,141.086C669.723,140.971 673.419,139.759 673.675,139.459Z" style="fill-opacity:1;"/>
    </g>
    <g transform="matrix(1.575195,0,0,1.575195,29.283109,642.149975)">
        <path d="M808.344,31.204C808.343,31.205 813.38,41.617 809.576,54.521C804.752,70.887 794.928,71.323 796.878,74.262C798.105,76.111 804.299,78.185 811.205,122.554C813.735,138.806 819.849,139.733 821.448,139.976C823.305,140.257 823.04,139.402 823.775,139.069L825.502,139.222C825.465,139.303 825.002,143.594 818.521,145.565C816.19,146.274 813.497,145.886 813.33,145.925C812.838,146.041 810.512,145.055 808.426,143.907C807.507,141.744 806.461,140.91 806.305,140.7C805.29,139.331 801.687,137.202 801.253,136.946C800.534,136.521 795.696,135.041 795.515,135.164C794.887,135.592 794.745,136.537 794.117,136.965C790.085,134.876 794.42,133.032 794.94,126.539C795.275,122.341 793.597,117.091 793.175,108.518C792.924,103.422 791.757,103.651 791.202,98.55C790.999,96.682 789.81,95.159 789.882,94.266C789.913,93.897 788.486,89.712 788.372,89.52C787.928,88.818 787.526,87.683 787.467,87.517C786.724,85.42 781.169,77.839 779.137,80.232C778.378,81.125 778.863,121.877 778.906,125.498C779.017,134.822 782.05,133.612 783.247,135.63C783.497,136.051 783.733,137.206 777.551,137.876C765.609,139.171 765.773,140.147 761.455,140.117C759.492,140.104 759.471,141.58 758.399,140.657C758.05,140.357 758.046,139.769 757.698,139.469L757.847,138.438C758.401,138.449 759.661,139.703 761.586,134.52C762.899,130.987 762.167,119.826 762.313,58.5C762.372,33.565 763.37,30.953 758.305,26.679C757.619,26.1 755.562,23.763 759.464,24.208C760.264,24.299 760.189,23.663 769.476,23.096C773.254,22.866 774.942,20.35 792.516,21.287C794.33,21.383 802.169,24.875 802.191,24.893C802.545,25.17 806.327,28.137 806.534,28.46C807.312,29.675 808.47,30.911 808.344,31.204ZM785.508,61.522C787.68,60.817 789.001,59.833 790.449,58.436C797.46,51.677 796.019,43.968 794.019,40.825C790.703,35.614 779.891,36.904 779.238,38.34C778.775,39.359 778.518,61.832 779.431,62.586C779.811,62.9 780.221,63.238 785.508,61.522Z" style="fill-opacity:1;"/>
    </g>
    <g transform="matrix(1.575195,0,0,1.575195,29.283109,642.149975)">
        <path d="M257.711,129.106C261.604,131.098 263.834,135.166 263.83,135.234C263.822,135.373 267.984,140.575 267.655,151.507C267.182,167.258 256.65,174.696 254.845,175.971C251.322,178.459 256.045,178.877 259.748,189.415C268.049,213.04 267.658,245.948 278.505,244.376C278.711,244.346 278.672,244.281 280.77,243.089L282.474,243.591C281.758,244.848 281.112,248.509 274.41,250.156C273.316,250.425 271.936,251.018 271.936,251.018C271.936,251.018 270.178,251.942 270.151,251.959C267.921,250.847 268.29,250.423 266.301,248.973C264.947,247.457 259.028,239.329 251.444,239.7C250.306,239.756 250.359,239.586 249.225,239.466C253.015,228.429 250.484,228.166 250.324,216.507C250.285,213.664 247.572,197.448 245.654,194.465C245.31,193.339 245.343,193.384 244.656,192.434C244.234,191.557 240.104,182.985 236.482,183.418C235.405,183.546 235.558,184.171 235.558,220.5C235.558,233.892 235.181,235.153 239.821,239.327C241.974,241.264 239.005,240.592 232.541,241.741C225.804,242.939 219.654,242.887 218.53,242.877C216.809,242.863 217.139,242.69 216.209,244.162C210.809,241.483 219.074,241.17 219.267,232.493C219.29,231.419 219.286,138.419 219.269,137.506C219.141,130.712 214.933,129.34 214.806,129.216C212.063,126.54 220.452,127.041 220.459,127.04C228.008,125.888 227.963,125.999 228.598,125.826C232.491,124.765 247.651,125.003 249.486,125.543C257.051,127.772 257.103,128.794 257.711,129.106ZM245.461,164.185L246.431,163.272C250.055,160.9 249.389,160.301 251.218,156.393C253.033,152.514 252.322,150.301 252.289,149.16C252.259,148.144 252.403,148.472 251.55,146.481C249.742,142.261 245.406,140.713 238.47,141.22C234.805,141.488 235.571,143.22 235.558,160.5C235.555,164.72 234.294,167.078 238.473,166.347C242.092,165.714 241.919,165.33 245.461,164.185Z" style="fill-opacity:1;"/>
    </g>
    <g transform="matrix(1.575195,0,0,1.575195,29.283109,642.149975)">
        <path d="M469.512,85.197C468.746,86.148 468.929,86.243 468.044,87.019C463.766,90.773 464.441,97.994 464.441,134.5C464.441,195.303 463.999,196.287 467.404,198.601C472.153,201.828 462.15,202.127 458.411,203.158C453.102,204.622 445.689,205.854 445.5,206.009C444.978,206.438 444.832,206.326 444.31,206.756C442.41,204.166 443.216,204.654 445.438,202.445C445.916,201.97 448.006,199.891 448.19,194.481C448.819,175.957 449.11,155.193 449.034,151.757C449.009,150.603 449.049,145.822 448.797,141.461C448.623,138.466 444.312,140.466 436.56,141.856C431.24,142.81 430.828,143.366 430.797,146.501C430.754,150.737 430.318,194.19 430.922,199.458C431.77,206.839 436.015,206.003 435.098,208.083C434.9,208.532 422.16,210.833 415.457,212.338C413.932,212.68 413.986,212.74 412.489,213.108C412.168,213.187 411.77,212.864 411.5,213.054C410.96,213.435 410.706,213.376 410.166,213.758C408.818,211.812 409.034,212.34 410.668,210.661C414.86,206.354 414.333,205.736 414.333,189.5C414.333,134.218 415.142,134.29 415.053,129.49C414.844,118.23 414.954,114.989 414.173,104.548C413.942,101.46 408.3,99.336 409.559,97.544C410.005,96.911 416.807,96.147 417.445,96.076C418.133,95.998 423.09,94.384 423.477,94.341C429.045,93.722 428.842,92.787 434.476,92.296C434.156,95.67 433.659,95.493 433.598,95.574C432.058,97.619 429.802,100.614 430.791,127.459C430.881,129.905 432.057,128.787 434.438,128.268C437.256,127.653 437.314,127.88 439.829,126.43C442.257,126.282 442.252,126.335 442.452,126.27C446.908,124.812 448.262,125.618 448.269,122.497C448.314,99.815 448.827,95.349 444.363,92.628C439.712,89.793 451.388,88.855 451.598,88.799C459.813,86.611 459.887,86.99 460.6,86.798C464.689,85.695 464.614,85.388 469.512,85.197Z" style="fill-opacity:1;"/>
    </g>
    <g transform="matrix(1.575195,0,0,1.575195,29.283109,642.149975)">
        <path d="M618.202,67.337C619.189,74.001 621.256,83.468 623.342,98.523C623.747,101.441 626.612,116.626 628.974,133.436C629.737,138.86 631.41,147.276 631.649,148.474C631.91,149.786 631.594,157.45 637.853,161.096C638.161,161.275 641.586,162.556 637.565,163.655C636.776,163.871 636.767,163.805 627.554,165.749C626.832,165.902 618.611,167.636 618.529,167.652C617.166,167.909 615.76,167.942 614.414,168.278C614.056,168.367 613.825,169.078 613.5,168.904C612.688,168.468 612.173,167.21 612.103,167.038C611.941,166.642 612.694,166.935 612.539,166.557C617.372,163.006 616.518,157.337 615.806,155.313C616.149,153.95 616.109,153.995 616.18,152.612C614.958,145.716 616.264,141.464 609.663,143.962C595.705,149.245 595.366,157.603 594.328,163.481C594.157,164.446 594.521,168.375 597.466,169.564C602.875,171.748 596.828,172.244 590.569,173.754C589.203,174.084 574.371,177.663 573.354,177.251C572.968,177.095 572.797,176.587 572.411,176.43C580.828,165.405 579.371,165.279 580.164,159.407C580.252,158.755 581.928,151.617 582.025,150.011C582.105,148.683 584.232,137.221 585.061,125.084C585.127,124.113 587.99,106.244 588.099,104.476C588.413,99.418 589.097,99.528 589.301,94.486C589.61,86.852 590.772,87.051 591.356,79.483C591.398,78.941 593.899,70.786 593.197,62.546C592.989,60.107 588.174,57.699 591.373,57.233C597.596,56.326 597.583,56.483 603.515,54.545C604.881,54.099 606.094,54.635 612.515,52.546C614.985,51.742 615.082,52.35 617.523,51.567C618.844,51.144 618.837,51.386 620.505,51.482C617.348,55.866 617.088,59.818 618.202,67.337ZM600.666,133.901C608.595,129.897 610.489,129.049 610.489,129.049C611.774,128.177 612.64,128.92 611.053,116.553C609.765,109.55 609.871,109.596 609.067,102.543C608.322,96.013 607.873,96.122 607.234,89.538C606.508,82.051 606.68,81.922 606.298,81.666C606.094,81.529 605.806,82.044 605.602,81.907L604.732,82.585C604.507,93.393 602.364,103.217 600.722,117.525C599.502,128.156 596.522,135.994 600.666,133.901Z" style="fill-opacity:1;"/>
    </g>
    <g transform="matrix(1.575195,0,0,1.575195,29.283109,642.149975)">
        <path d="M398.728,110.079C399.135,110.912 398.78,111.065 399.772,112.217C401.288,113.977 403.849,121.098 404.011,122.57C408.425,162.587 373.536,166.075 372.588,166.654C371.35,167.412 371.477,167.822 371.485,206.5C371.488,218.846 375.836,217.871 376.066,218.785C376.498,220.5 375.489,220.813 354.587,223.99C352.792,224.263 352.188,225.777 352.185,225.78C351.346,224.769 351.371,224.797 350.652,223.692C355.719,216.337 355.268,215.962 355.268,206.5C355.27,116.283 355.403,116.121 354.144,113.693C353.074,111.631 348.928,110.148 350.555,108.554C351.136,107.985 351.541,109.578 360.518,106.557C360.78,106.468 366.018,106.255 369.401,105.125C374.559,103.402 388.083,103.474 390.595,105.346C392.592,106.834 393.077,105.887 395.339,107.701C395.432,107.776 398.456,109.889 398.728,110.079ZM380.486,148.388C380.486,148.388 382.227,146.641 382.536,146.627C385.802,144.251 385.525,143.999 387.211,140.378C388.267,138.112 388.894,131.239 387.489,127.985C387.454,125.703 387.514,125.708 387.451,125.521C385.257,119 374.217,120.309 372.332,121.259C371.384,121.738 371.473,122.087 371.484,147.5C371.487,152.355 374.773,150.08 380.486,148.388Z" style="fill-opacity:1;"/>
    </g>
    <g transform="matrix(1.575195,0,0,1.575195,29.283109,642.149975)">
        <path d="M542.478,67.186C546.79,66.964 555.857,70.48 557.443,73.229C557.688,73.652 559.411,74.981 559.622,75.422C560.999,78.308 560.803,78.343 561.696,81.442C562.085,82.791 562.892,89.45 559.953,94.731C553.238,106.796 543.489,103.978 541.147,103.927C541.493,101.306 541.729,101.389 543.385,99.385C545.554,96.759 545.479,96.715 546.361,93.467C547.851,81.697 532.564,84.144 530.906,95.552C530.401,99.022 529.822,161.349 531.231,165.592C532.172,168.426 534.194,169.192 534.569,169.334C538.379,170.776 540.187,169.008 540.522,169.024C541.322,169.06 544.351,165.952 544.649,165.646C552.506,157.583 548.619,147.464 547.816,146.313C542.191,138.244 555.192,141.904 555.205,141.912C557.923,143.69 558.114,143.296 560.677,145.28C560.705,145.652 561.544,148.109 561.697,148.337C562.08,148.908 560.761,149.398 564.698,156.382C565.815,158.363 567.928,158.818 565.543,161.537C562.099,165.463 555.079,185.746 535.543,187.917C534.981,187.98 526.692,187.851 526.152,187.939C524.151,186.998 524.327,186.789 522.776,185.226C521.27,183.708 520.932,184.195 519.869,183.133C518.887,182.153 519.349,181.855 518.279,180.941C517.147,179.072 514.467,175.026 514.273,174.806C514.102,174.613 511.579,174.195 509.606,172.539C511.857,168.232 511.664,168.139 511.907,167.794C517.045,160.507 512.083,102.508 515.558,90.521C517.35,84.338 520.863,80.27 521.413,79.423C523.554,76.121 523.9,76.466 526.809,73.839C530.334,70.657 530.898,71.558 534.803,68.917C535.295,68.584 542.125,67.204 542.478,67.186Z" style="fill-opacity:1;"/>
    </g>
    <g transform="matrix(1.575195,0,0,1.575195,29.283109,642.149975)">
        <path d="M748.666,27.238C748.52,27.603 748.059,27.781 747.913,28.147C747.341,29.582 750.99,45.54 750.337,46.39C749.192,47.88 747.75,44.145 742.519,44.102C737.904,44.063 727.87,45.171 727.325,47.46C727.106,48.381 727.402,65.348 727.118,68.567C726.776,72.446 729.596,68.894 729.725,68.731C732.707,64.974 738.626,63.097 740.499,63.105C745.704,63.125 746.56,64.381 748.676,66.281C749.819,71.444 746.955,81.788 743.189,78.902C737.844,74.807 728.942,80.215 727.39,89.486C727.119,91.105 727.22,128.168 727.328,128.558C727.483,129.116 727.876,130.529 734.575,128.759C736.336,128.293 745.789,124.454 747.738,122.809C749.603,121.235 749.592,119.912 751.629,121.299L750.378,122.5C750.344,122.843 748.048,140.858 747.028,142.106C746.103,143.238 731.47,144.835 717.551,147.691C716.995,147.805 712.927,148.639 710.556,148.87C707.065,149.21 707.75,150.364 707.149,150.855C707.009,150.656 706.657,150.688 706.517,150.488C705.17,148.575 711.041,143.765 711.109,138.483C711.156,134.881 711.152,43.938 711.096,43.533C711.044,43.163 710.379,40.875 710.246,40.596C709.161,38.307 709.627,37.959 707.513,36.482C706.101,35.495 705.546,33.48 707.417,33.22C713.005,32.443 712.845,31.622 718.484,31.288C722.544,31.047 722.433,30.528 726.475,30.12C732.049,29.559 731.884,28.725 737.473,28.152C743.43,27.542 745.238,24.872 748.666,27.238Z" style="fill-opacity:1;"/>
    </g>
    <g transform="matrix(1.575195,0,0,1.575195,29.283109,642.149975)">
        <path d="M904.5,125.501C903.762,125.52 903.025,125.539 902.288,125.558C902.462,123.468 902.529,123.456 904.032,122.075C905.141,121.056 905.654,119.839 905.747,119.618C906.012,118.988 906.962,112.546 906.966,111.504C907.365,25.435 907.203,24.076 906.302,16.531C905.893,13.102 900.587,10.899 901.51,9.508C902.1,8.619 916.704,9.473 919.577,8.801C922.986,8.004 944.952,8.91 944.674,9.059C942.862,10.03 943.877,11.821 945.145,21.554C945.459,23.966 948.652,31.882 943.521,27.473C937.761,22.522 923.676,25.085 923.381,25.398C922.275,26.566 923.396,26.875 922.914,45.499C922.844,48.2 921.741,49.985 924.306,49.212C924.444,49.17 925.62,46.666 929.62,44.761C930.21,44.481 930.391,44.434 930.461,44.416C931.798,44.073 935.1,43.276 937.516,43.383C938.432,43.424 939.116,43.793 939.33,43.847C940.245,44.077 944.013,48.826 943.87,49.242C943.658,49.862 946.502,53.55 943.682,58.608C940.548,64.231 939.163,58.154 934.469,57.907C923.066,57.306 922.936,70.074 922.921,71.501C922.892,74.371 922.567,106.339 922.996,107.381C923.531,108.682 925.275,108.626 925.499,108.619C928.847,108.512 936.849,108.214 941.339,106.182C944.141,104.915 943.519,103.776 946.498,103.197C943.618,123.409 943.15,123.833 941.454,124.133C938.857,124.591 938.843,123.727 908.506,124.924C906.988,124.984 907.026,124.926 905.517,124.929C905.178,125.12 904.839,125.31 904.5,125.501Z" style="fill-opacity:0.94;"/>
    </g>
    <g transform="matrix(1.575195,0,0,1.575195,29.283109,642.149975)">
        <path d="M500.346,78.044C500.389,78.673 501.457,78.914 501.5,79.543C501.532,80.007 500.15,79.221 498.407,84.467C497.331,87.707 497.46,87.795 497.46,174.5C497.46,186.269 497.087,188.298 501.219,191.813C503.487,193.743 499.061,194.211 497.537,194.618C496.518,194.891 481.857,198.029 479.538,198.633C478.941,198.788 479.027,199.264 478.5,198.948C477.451,198.319 478.095,197.767 477.081,197.16C481.927,191.954 481.27,191.12 481.27,147.5C481.27,90.473 481.544,90.056 479.414,87.567C478.251,86.209 478.009,86.516 476.835,85.218C473.764,81.826 483.643,82.709 495.517,78.552C495.884,78.423 495.92,78.411 500.346,78.044Z" style="fill-opacity:1;"/>
    </g>
    <g transform="matrix(1.575195,0,0,1.575195,29.283109,642.149975)">
        <path d="M709.562,183.705C712.09,184.506 712.042,184.481 714.502,185.316C708.516,185.581 708.549,185.288 706.565,184.854C708.711,184.286 708.468,183.92 708.647,183.877C708.89,183.818 709.105,184.183 709.351,184.137C709.509,184.107 709.405,183.735 709.562,183.705Z" style="fill-opacity:0.41;"/>
    </g>
    <g transform="matrix(1.575195,0,0,1.575195,29.283109,642.149975)">
        <path d="M380.688,146.46C380.973,146.666 381.013,146.471 381.307,146.684C382.249,147.363 382.227,146.641 382.536,146.627C381.66,147.716 381.638,147.644 380.486,148.388C380.553,147.746 380.621,147.103 380.688,146.46Z" style="fill-opacity:0.25;"/>
    </g>
    <g transform="matrix(1.575195,0,0,1.575195,29.283109,642.149975)">
        <path d="M116.314,287.681C118.036,287.917 118.06,287.835 118.171,287.936C118.413,288.154 117.991,288.691 118.232,288.909C117.105,288.574 117.188,288.473 116.314,287.681Z" style="fill-opacity:0.18;"/>
    </g>
    <g transform="matrix(1.575195,0,0,1.575195,29.283109,642.149975)">
        <path d="M244.836,162.437C245.368,162.715 245.899,162.993 246.431,163.272L245.461,164.185C245.252,163.602 245.044,163.019 244.836,162.437Z" style="fill-opacity:0.13;"/>
    </g>
    <g transform="matrix(1.575195,0,0,1.575195,29.283109,642.149975)">
        <path d="M862.309,274.68C863.994,274.968 864.015,274.895 864.127,274.991C864.37,275.198 863.965,275.738 864.208,275.945C863.108,275.558 863.197,275.482 862.309,274.68Z" style="fill-opacity:0.25;"/>
    </g>
    <g transform="matrix(1.575195,0,0,1.575195,29.283109,642.149975)">
        <path d="M545.415,94.366C544.746,94.924 544.077,95.481 543.408,96.039C544.274,94.998 544.328,95.131 545.415,94.366Z" style="fill-opacity:0.48;"/>
    </g>
    <g transform="matrix(1.575195,0,0,1.575195,29.283109,642.149975)">
        <path d="M872.531,126.932C872.447,126.984 871.474,127.577 871.474,127.577C871.204,127.482 871.327,126.874 871.571,126.725C871.851,126.555 872.252,127.103 872.531,126.932Z" style="fill-opacity:1;"/>
    </g>
    <g transform="matrix(1.575195,0,0,1.575195,24.082248,644.266024)">
        <path d="M871.474,127.577C870.697,127.564 869.921,127.552 869.144,127.539C870.019,123.389 872.446,124.503 873.15,120.439C873.758,116.935 873.577,116.974 874.223,113.512C874.426,109.491 874.429,109.54 873.955,105.518L873.966,104.501C873.967,68.665 875.163,62.711 872.916,66.722C872.51,67.447 873.187,69.17 869.271,82.421C868.586,84.738 861.706,108.015 861.117,111.5C860.817,113.278 859.324,113.489 859.286,113.531C858.941,111.012 856.683,105.934 856.577,101.477C856.113,100.506 855.65,99.536 855.187,98.566C854.046,93.953 853.917,94.068 852.673,89.455C852.229,87.805 847.133,68.904 847.069,68.844C846.892,68.674 845.273,67.729 845.537,71.502C847.016,92.646 844.671,115.162 846.901,122.378C848.464,127.434 853.268,128.843 849.43,129.162C847.672,129.307 828.107,130.931 827.491,131.352C826.942,131.727 826.634,132.393 826.084,132.769C821.995,130.192 826.358,129.497 827.161,128.251C830.562,122.976 830.105,122.486 830.105,52.5C830.105,28.17 830.92,20.644 825.636,17.389C824.234,16.526 824.554,15.344 826.392,15.169C846.129,13.292 846.814,13.084 848.52,12.566C850.176,12.062 850.224,12.222 851.654,13.227C848.718,16.114 847.161,17.916 848.192,21.585C855.162,46.373 854.538,46.46 855.192,48.594C858.405,59.078 859.947,72.799 861.497,62.499C862.412,56.416 864.462,51.482 864.462,51.482C864.779,50.927 863.731,50.702 865.824,43.612C866.6,40.984 865.983,40.854 867.112,38.342C868.714,34.776 868.283,29.433 870.181,25.381C870.875,23.899 872.204,17.711 871.813,16.399C871.015,13.718 866.738,11.734 871.506,10.519C872.546,10.255 886.17,10.262 888.458,10.039C891.98,9.694 895.941,9.95 895.636,10.062C893.77,10.75 891.857,14.146 891.62,14.567C889.671,18.027 889.918,18.294 889.918,96.5C889.918,117.794 889.2,119.677 894.133,123.861C894.985,124.584 894.477,125.792 893.665,125.863C889.497,126.227 889.468,125.404 876.53,126.778C876.212,126.811 876.234,126.789 872.531,126.932C872.179,127.147 871.827,127.362 871.474,127.577Z" style="fill-opacity:0.93;"/>
    </g>
</svg>
